<svg height="512pt" viewBox="-26 0 512 512" width="512pt" xmlns="http://www.w3.org/2000/svg"><path d="m0 52.964844v414.898437h282.484375v-414.898437zm0 0" fill="#28384c"/><path d="m282.484375 70.621094h-282.484375v-48.136719c0-12.421875 10.0625-22.484375 22.484375-22.484375h237.523437c12.410157 0 22.476563 10.0625 22.476563 22.484375zm0 0" fill="#e7eced"/><path d="m260 512h-237.515625c-12.421875 0-22.484375-10.0625-22.484375-22.484375v-48.136719h282.484375v48.136719c0 12.421875-10.066406 22.484375-22.484375 22.484375zm0 0" fill="#e7eced"/><path d="m176.550781 476.691406c0 19.5-15.808593 35.308594-35.308593 35.308594-19.503907 0-35.3125-15.808594-35.3125-35.308594 0-19.503906 15.808593-35.3125 35.3125-35.3125 19.5 0 35.308593 15.808594 35.308593 35.3125zm0 0" fill="#afb6bb"/><path d="m167.722656 44.136719h-52.964844c-4.871093 0-8.828124-3.953125-8.828124-8.828125 0-4.871094 3.957031-8.824219 8.828124-8.824219h52.964844c4.875 0 8.828125 3.953125 8.828125 8.824219 0 4.875-3.953125 8.828125-8.828125 8.828125zm0 0" fill="#afb6bb"/><path d="m141.242188 114.757812v264.828126l52.964843-52.964844h264.828125v-211.863282zm0 0" fill="#61b872"/><path d="m282.484375 206.566406c0 31.203125-52.96875 84.742188-52.96875 84.742188s-52.964844-53.539063-52.964844-84.742188c0-31.207031 23.710938-56.496094 52.964844-56.496094 29.257813 0 52.96875 25.289063 52.96875 56.496094zm0 0" fill="#dd352e"/><g fill="#fff"><path d="m211.863281 185.378906h35.308594v35.3125h-35.308594zm0 0"/><path d="m379.585938 300.136719h-105.929688c-4.875 0-8.828125-3.953125-8.828125-8.828125 0-4.871094 3.953125-8.824219 8.828125-8.824219h105.929688c9.738281 0 17.65625-7.921875 17.65625-17.65625 0-9.738281-7.917969-17.65625-17.65625-17.65625h-30.894532c-21.902344 0-39.726562-17.824219-39.726562-39.722656 0-21.902344 17.824218-39.726563 39.726562-39.726563h75.03125c4.875 0 8.828125 3.957032 8.828125 8.828125 0 4.875-3.953125 8.828125-8.828125 8.828125h-75.03125c-12.167968 0-22.070312 9.90625-22.070312 22.070313 0 12.164062 9.902344 22.066406 22.070312 22.066406h30.894532c19.472656 0 35.3125 15.839844 35.3125 35.3125s-15.839844 35.308594-35.3125 35.308594zm0 0"/><path d="m423.722656 185.378906c-2.257812 0-4.519531-.863281-6.238281-2.585937l-26.484375-26.484375c-3.453125-3.449219-3.453125-9.027344 0-12.480469 3.441406-3.453125 9.039062-3.453125 12.484375 0l26.480469 26.484375c3.453125 3.449219 3.453125 9.027344 0 12.480469-1.722656 1.722656-3.980469 2.585937-6.242188 2.585937zm0 0"/><path d="m397.242188 211.863281c-2.261719 0-4.519532-.867187-6.242188-2.585937-3.453125-3.453125-3.453125-9.03125 0-12.484375l26.484375-26.480469c3.441406-3.453125 9.039063-3.453125 12.480469 0 3.453125 3.449219 3.453125 9.027344 0 12.480469l-26.480469 26.484375c-1.722656 1.71875-3.984375 2.585937-6.242187 2.585937zm0 0"/></g><path d="m44.136719 123.585938h52.964843v52.964843h-52.964843zm0 0" fill="#366db6"/><path d="m44.136719 335.449219h52.964843v52.964843h-52.964843zm0 0" fill="#ed8a19"/><path d="m44.136719 211.863281h52.964843v88.273438h-52.964843zm0 0" fill="#ebba16"/></svg>