<svg height="512pt" viewBox="0 0 512 512" width="512pt" xmlns="http://www.w3.org/2000/svg"><path d="m441.378906 229.515625h-185.378906v-141.238281h185.378906zm0 0" fill="#a05732"/><path d="m300.136719 220.691406h-123.585938v-132.414062h123.585938zm0 0" fill="#be6e41"/><g fill="#6c4127"><path d="m264.828125 88.277344h-88.277344l-35.308593-35.3125h88.273437zm0 0"/><path d="m344.277344 88.277344h88.273437l35.3125-35.3125h-88.277343zm0 0"/><path d="m132.414062 211.863281h167.722657v114.757813h-167.722657zm0 0"/></g><path d="m97.101562 317.792969v62.992187c21.46875 9.015625 37.855469 28.1875 43.726563 51.765625h159.308594v-114.757812zm0 0" fill="#54301d"/><path d="m158.898438 317.792969h70.617187v52.964843h-70.617187zm0 0" fill="#f7e6a1"/><path d="m291.308594 211.863281h194.207031v220.6875h-194.207031zm0 0" fill="#8e634c"/><path d="m353.101562 211.863281h70.621094v52.964844h-70.621094zm0 0" fill="#f7e6a1"/><path d="m361.929688 397.242188h-35.308594c-4.875 0-8.828125-3.957032-8.828125-8.828126v-35.3125c0-4.871093 3.953125-8.824218 8.828125-8.824218 4.871094 0 8.828125 3.953125 8.828125 8.824218v26.484376h26.480469c4.875 0 8.828124 3.953124 8.828124 8.828124 0 4.871094-3.953124 8.828126-8.828124 8.828126zm0 0" fill="#54301d"/><path d="m450.207031 397.242188h-35.308593c-4.875 0-8.828126-3.957032-8.828126-8.828126 0-4.875 3.953126-8.828124 8.828126-8.828124h26.480468v-26.484376c0-4.871093 3.957032-8.824218 8.828125-8.824218 4.871094 0 8.828125 3.953125 8.828125 8.824218v35.3125c0 4.871094-3.957031 8.828126-8.828125 8.828126zm0 0" fill="#54301d"/><path d="m441.378906 123.585938h-44.136718c-4.875 0-8.828126 3.953124-8.828126 8.828124 0 4.871094 3.953126 8.828126 8.828126 8.828126h44.136718zm0 0" fill="#6c4127"/><path d="m441.378906 158.898438h-79.449218c-4.871094 0-8.828126 3.953124-8.828126 8.824218 0 4.875 3.957032 8.828125 8.828126 8.828125h79.449218zm0 0" fill="#6c4127"/><path d="m300.136719 450.207031v8.828125h.707031c4.289062 29.933594 29.96875 52.964844 61.085938 52.964844 31.128906 0 56.796874-23.03125 61.089843-52.964844h.703125v-8.828125zm0 0" fill="#28384c"/><path d="m26.484375 75.300781v336.867188c9.929687-7.960938 22.039063-13.265625 35.308594-14.925781v-321.941407l-29.765625-64.574219c-2.417969-6.453124-8.589844-10.726562-15.476563-10.726562-11.546875 0-19.535156 11.527344-15.484375 22.332031zm0 0" fill="#e7eced"/><path d="m112.445312 423.722656c1.457032 5.652344 2.3125 11.546875 2.3125 17.65625s-.855468 12.007813-2.3125 17.65625h381.898438c9.753906 0 17.65625-7.902344 17.65625-17.65625s-7.902344-17.65625-17.65625-17.65625zm0 0" fill="#e7eced"/><path d="m141.242188 441.378906c0 39.003906-31.617188 70.621094-70.621094 70.621094s-70.621094-31.617188-70.621094-70.621094 31.617188-70.621094 70.621094-70.621094 70.621094 31.617188 70.621094 70.621094zm0 0" fill="#28384c"/><path d="m70.621094 467.863281c-14.628906 0-26.484375-11.855469-26.484375-26.484375 0-14.625 11.855469-26.480468 26.484375-26.480468 14.625 0 26.480468 11.855468 26.480468 26.480468 0 14.628906-11.855468 26.484375-26.480468 26.484375zm0 0" fill="#e7eced"/></svg>