<svg height="512pt" viewBox="-4 0 512 512" width="512pt" xmlns="http://www.w3.org/2000/svg"><path d="m0 60.746094v373.671875c0 28.464843 23.082031 51.546875 51.546875 51.546875h364.996094v-425.21875zm0 0" fill="#366db6"/><path d="m494.644531 52.066406h-34.710937v-34.710937c0-9.589844 7.765625-17.355469 17.355468-17.355469 9.589844 0 17.355469 7.765625 17.355469 17.355469zm0 0" fill="#5c6d7f"/><path d="m477.289062 512c-4.792968 0-8.679687-3.878906-8.679687-8.679688v-34.710937c0-4.796875 3.886719-8.675781 8.679687-8.675781 4.789063 0 8.675782 3.878906 8.675782 8.675781v34.710937c0 4.800782-3.886719 8.679688-8.675782 8.679688zm0 0" fill="#5c6d7f"/><path d="m459.933594 416.542969h34.710937v52.066406h-34.710937zm0 0" fill="#ebba16"/><path d="m52.066406 0c28.761719 0 52.070313 23.308594 52.070313 52.066406v381.832032c0-28.757813-23.308594-52.066407-52.070313-52.066407-28.757812 0-52.066406 23.308594-52.066406 52.066407v-381.832032c0-28.757812 23.308594-52.066406 52.066406-52.066406zm0 0" fill="#1f436d"/><path d="m277.695312 407.863281h-138.847656c-4.789062 0-8.679687-3.878906-8.679687-8.675781 0-4.800781 3.890625-8.679688 8.679687-8.679688h138.847656c4.789063 0 8.675782 3.878907 8.675782 8.679688 0 4.796875-3.886719 8.675781-8.675782 8.675781zm0 0" fill="#fc3952"/><path d="m381.832031 407.863281h-69.425781c-4.789062 0-8.675781-3.878906-8.675781-8.675781 0-4.800781 3.886719-8.679688 8.675781-8.679688h69.425781c4.789063 0 8.675781 3.878907 8.675781 8.679688 0 4.796875-3.886718 8.675781-8.675781 8.675781zm0 0" fill="#dc691d"/><path d="m381.832031 442.578125h-182.238281c-4.789062 0-8.679688-3.882813-8.679688-8.679687 0-4.800782 3.890626-8.679688 8.679688-8.679688h182.238281c4.789063 0 8.675781 3.878906 8.675781 8.679688 0 4.796874-3.886718 8.679687-8.675781 8.679687zm0 0" fill="#ebba16"/><path d="m164.882812 442.578125h-26.035156c-4.789062 0-8.679687-3.882813-8.679687-8.679687 0-4.800782 3.890625-8.679688 8.679687-8.679688h26.035156c4.789063 0 8.675782 3.878906 8.675782 8.679688 0 4.796874-3.886719 8.679687-8.675782 8.679687zm0 0" fill="#61b872"/><path d="m381.832031 338.441406h-69.425781c-4.789062 0-8.675781-3.878906-8.675781-8.679687 0-4.796875 3.886719-8.675781 8.675781-8.675781h69.425781c4.789063 0 8.675781 3.878906 8.675781 8.675781 0 4.800781-3.886718 8.679687-8.675781 8.679687zm0 0" fill="#cb465f"/><path d="m381.832031 373.152344h-130.171875c-4.789062 0-8.675781-3.878906-8.675781-8.679688 0-4.796875 3.886719-8.675781 8.675781-8.675781h130.171875c4.789063 0 8.675781 3.878906 8.675781 8.675781 0 4.800782-3.886718 8.679688-8.675781 8.679688zm0 0" fill="#bf4d90"/><path d="m381.832031 303.730469h-130.171875c-4.789062 0-8.675781-3.878907-8.675781-8.679688s3.886719-8.679687 8.675781-8.679687h130.171875c4.789063 0 8.675781 3.878906 8.675781 8.679687s-3.886718 8.679688-8.675781 8.679688zm0 0" fill="#61b872"/><path d="m451.253906 43.390625h52.066406v390.507813h-52.066406zm0 0" fill="#28384c"/><path d="m451.253906 95.457031h52.066406v52.070313h-52.066406zm0 0" fill="#5c6d7f"/><path d="m451.253906 329.761719h52.066406v52.070312h-52.066406zm0 0" fill="#5c6d7f"/><path d="m138.847656 295.050781h78.101563v69.421875h-78.101563zm0 0" fill="#ebba16"/><path d="m277.695312 338.441406h-26.035156c-4.789062 0-8.675781-3.878906-8.675781-8.679687 0-4.796875 3.886719-8.675781 8.675781-8.675781h26.035156c4.789063 0 8.675782 3.878906 8.675782 8.675781 0 4.800781-3.886719 8.679687-8.675782 8.679687zm0 0" fill="#c6e2f7"/><path d="m138.847656 208.269531h34.710938v43.390625h-34.710938zm0 0" fill="#ebba16"/><path d="m347.117188 95.457031h34.714843v156.203125h-34.714843zm0 0" fill="#dd352e"/><path d="m277.695312 156.203125h34.710938v95.457031h-34.710938zm0 0" fill="#c5411e"/><path d="m208.269531 121.492188h34.714844v130.167968h-34.714844zm0 0" fill="#dc691d"/><path d="m381.832031 260.339844h-242.984375c-4.789062 0-8.679687-3.878906-8.679687-8.679688 0-4.796875 3.890625-8.675781 8.679687-8.675781h242.984375c4.789063 0 8.675781 3.878906 8.675781 8.675781 0 4.800782-3.886718 8.679688-8.675781 8.679688zm0 0" fill="#fff"/></svg>