<svg height="512pt" viewBox="0 0 512.00427 512" width="512pt" xmlns="http://www.w3.org/2000/svg"><path d="m315.734375 512.003906c-2.183594 0-4.367187-.835937-6.03125-2.5-3.335937-3.335937-3.335937-8.730468 0-12.066406l45.15625-45.167969-45.164063-45.164062c-3.339843-3.339844-3.339843-8.730469 0-12.066407 3.328126-3.335937 8.738282-3.335937 12.066407 0l51.199219 51.199219c3.335937 3.335938 3.335937 8.730469 0 12.066407l-51.199219 51.199218c-1.65625 1.664063-3.839844 2.5-6.027344 2.5zm0 0" fill="#7383bf"/><path d="m366.933594 460.804688h-256c-4.707032 0-8.53125-3.816407-8.53125-8.535157s3.824218-8.53125 8.53125-8.53125h256c4.710937 0 8.535156 3.8125 8.535156 8.53125s-3.824219 8.535157-8.535156 8.535157zm0 0" fill="#7383bf"/><path d="m110.933594 452.269531c0 28.277344-22.921875 51.203125-51.199219 51.203125s-51.199219-22.925781-51.199219-51.203125c0-28.277343 22.921875-51.199219 51.199219-51.199219s51.199219 22.921876 51.199219 51.199219zm0 0" fill="#ebba16"/><path d="m401.070312 204.804688c-2.1875 0-4.371093-.835938-6.035156-2.5-3.335937-3.335938-3.335937-8.730469 0-12.066407l51.199219-51.199219c3.203125-3.203124 8.867187-3.203124 12.066406 0l51.199219 51.199219c3.339844 3.335938 3.339844 8.730469 0 12.066407-3.324219 3.335937-8.726562 3.335937-12.0625 0l-45.167969-45.167969-45.167969 45.167969c-1.664062 1.664062-3.847656 2.5-6.03125 2.5zm0 0" fill="#7383bf"/><path d="m452.269531 409.605469c-4.710937 0-8.535156-3.816407-8.535156-8.535157v-256c0-4.71875 3.824219-8.53125 8.535156-8.53125 4.710938 0 8.53125 3.8125 8.53125 8.53125v256c0 4.71875-3.820312 8.535157-8.53125 8.535157zm0 0" fill="#7383bf"/><path d="m503.46875 452.269531c0 28.277344-22.921875 51.203125-51.199219 51.203125-28.277343 0-51.199219-22.925781-51.199219-51.203125 0-28.277343 22.921876-51.199219 51.199219-51.199219 28.277344 0 51.199219 22.921876 51.199219 51.199219zm0 0" fill="#dd352e"/><path d="m196.269531 119.472656c-2.183593 0-4.371093-.839844-6.035156-2.503906l-51.199219-51.199219c-3.335937-3.335937-3.335937-8.726562 0-12.066406l51.199219-51.199219c3.328125-3.335937 8.730469-3.335937 12.066406 0 3.335938 3.335938 3.335938 8.730469 0 12.066406l-45.15625 45.167969 45.164063 45.167969c3.339844 3.335938 3.339844 8.726562 0 12.0625-1.671875 1.664062-3.855469 2.503906-6.039063 2.503906zm0 0" fill="#7383bf"/><path d="m401.070312 68.269531h-256c-4.710937 0-8.535156-3.8125-8.535156-8.53125s3.824219-8.535156 8.535156-8.535156h256c4.707032 0 8.53125 3.816406 8.53125 8.535156s-3.824218 8.53125-8.53125 8.53125zm0 0" fill="#7383bf"/><path d="m503.46875 59.738281c0 28.277344-22.921875 51.199219-51.199219 51.199219-28.277343 0-51.199219-22.921875-51.199219-51.199219 0-28.277343 22.921876-51.199219 51.199219-51.199219 28.277344 0 51.199219 22.921876 51.199219 51.199219zm0 0" fill="#23a24d"/><path d="m59.734375 375.472656c-2.261719 0-4.4375-.898437-6.03125-2.503906l-51.199219-51.199219c-3.339844-3.335937-3.339844-8.726562 0-12.066406 3.328125-3.335937 8.726563-3.335937 12.066406 0l45.164063 45.167969 45.167969-45.167969c3.328125-3.335937 8.738281-3.335937 12.066406 0 3.335938 3.339844 3.335938 8.730469 0 12.066406l-51.199219 51.199219c-1.605469 1.605469-3.773437 2.503906-6.035156 2.503906zm0 0" fill="#7383bf"/><path d="m59.734375 375.472656c-4.710937 0-8.53125-3.816406-8.53125-8.535156v-256c0-4.71875 3.820313-8.535156 8.53125-8.535156s8.535156 3.816406 8.535156 8.535156v256c0 4.71875-3.824219 8.535156-8.535156 8.535156zm0 0" fill="#7383bf"/><path d="m110.933594 59.738281c0 28.277344-22.921875 51.199219-51.199219 51.199219s-51.199219-22.921875-51.199219-51.199219c0-28.277343 22.921875-51.199219 51.199219-51.199219s51.199219 22.921876 51.199219 51.199219zm0 0" fill="#57abc1"/><path d="m392.535156 273.070312v-34.132812h-16.476562c-7.382813 0-14.105469-4.703125-16.195313-11.792969-2.179687-7.398437-5.121093-16.222656-8.738281-22.871093-3.542969-6.5-2.160156-14.597657 3.078125-19.839844l11.664063-11.664063-26.632813-26.632812-11.664063 11.664062c-5.238281 5.242188-13.335937 6.625-19.839843 3.082031-6.648438-3.617187-15.480469-6.5625-22.867188-8.738281-7.09375-2.082031-11.792969-8.8125-11.792969-16.195312v-16.476563h-34.136718v16.476563c0 7.382812-4.699219 14.105469-11.792969 16.195312-7.398437 2.175781-16.21875 5.121094-22.867187 8.738281-6.503907 3.542969-14.601563 2.160157-19.839844-3.082031l-11.664063-11.664062-26.632812 26.632812 11.664062 11.664063c5.238281 5.242187 6.621094 13.339844 3.082031 19.839844-3.621093 6.648437-6.5625 15.480468-8.738281 22.871093-2.082031 7.089844-8.816406 11.792969-16.199219 11.792969h-16.476562v34.132812h16.476562c7.382813 0 14.105469 4.703126 16.199219 11.792969 2.175781 7.398438 5.117188 16.222657 8.738281 22.871094 3.539063 6.5 2.15625 14.597656-3.082031 19.839844l-11.664062 11.664062 26.632812 26.632813 11.664063-11.664063c5.238281-5.242187 13.335937-6.621093 19.839844-3.082031 6.648437 3.617188 15.480468 6.5625 22.867187 8.738281 7.09375 2.082031 11.792969 8.816407 11.792969 16.195313v16.480468h34.136718v-16.480468c0-7.378906 4.699219-14.105469 11.792969-16.195313 7.398438-2.175781 16.21875-5.121093 22.867188-8.738281 6.503906-3.539062 14.601562-2.160156 19.839843 3.082031l11.664063 11.664063 26.632813-26.632813-11.664063-11.664062c-5.238281-5.242188-6.621094-13.339844-3.078125-19.839844 3.617188-6.648437 6.558594-15.480469 8.738281-22.871094 2.082031-7.089843 8.8125-11.792969 16.195313-11.792969zm0 0" fill="#afb6bb"/><g fill="#fff"><path d="m213.335938 290.136719c-2.183594 0-4.371094-.835938-6.035157-2.5l-25.597656-25.597657c-3.335937-3.339843-3.335937-8.730468 0-12.066406l25.597656-25.601562c3.328125-3.335938 8.738281-3.335938 12.066407 0 3.335937 3.335937 3.335937 8.730468 0 12.066406l-19.566407 19.566406 19.566407 19.566406c3.335937 3.335938 3.335937 8.730469 0 12.066407-1.664063 1.664062-3.847657 2.5-6.03125 2.5zm0 0"/><path d="m298.667969 290.136719c-2.183594 0-4.367188-.835938-6.03125-2.5-3.335938-3.335938-3.335938-8.730469 0-12.066407l19.566406-19.566406-19.566406-19.566406c-3.335938-3.335938-3.335938-8.730469 0-12.066406 3.328125-3.335938 8.738281-3.335938 12.066406 0l25.597656 25.601562c3.335938 3.335938 3.335938 8.726563 0 12.066406l-25.597656 25.597657c-1.664063 1.664062-3.851563 2.5-6.035156 2.5zm0 0"/><path d="m247.46875 290.136719c-.777344 0-1.5625-.109375-2.347656-.324219-4.53125-1.296875-7.160156-6.023438-5.863282-10.546875l17.070313-59.734375c1.296875-4.53125 6.023437-7.125 10.546875-5.871094 4.53125 1.296875 7.15625 6.027344 5.859375 10.550782l-17.066406 59.730468c-1.066407 3.753906-4.480469 6.195313-8.199219 6.195313zm0 0"/></g></svg>