<svg height="512pt" viewBox="0 0 512 512" width="512pt" xmlns="http://www.w3.org/2000/svg"><path d="m353.101562 476.691406c-39.035156 0-52.964843-22.757812-52.964843-61.792968v-8.828126h-88.273438v8.828126c0 39.035156-13.929687 61.792968-52.964843 61.792968l17.652343 17.652344h167.726563zm0 0" fill="#e7eced"/><path d="m512 344.277344h-512v-316.242188c0-15.480468 12.554688-28.035156 28.035156-28.035156h455.9375c15.472656 0 28.027344 12.554688 28.027344 28.035156zm0 0" fill="#e7eced"/><path d="m0 308.964844v77.894531c0 15.484375 12.554688 28.039063 28.035156 28.039063h455.929688c15.480468 0 28.035156-12.554688 28.035156-28.039063v-77.894531zm0 0" fill="#afb6bb"/><path d="m238.34375 344.277344h35.3125v35.308594h-35.3125zm0 0" fill="#28384c"/><path d="m388.414062 512h-264.828124v-17.671875c0-9.738281 7.902343-17.636719 17.636718-17.636719h229.554688c9.734375 0 17.636718 7.898438 17.636718 17.636719zm0 0" fill="#afb6bb"/><path d="m397.320312 264.828125h-282.640624c-9.710938 0-17.578126-7.867187-17.578126-17.578125v-141.320312h317.796876v141.320312c0 9.710938-7.867188 17.578125-17.578126 17.578125zm0 0" fill="#fff"/><path d="m414.898438 105.929688h-317.796876v-53.042969c0-9.710938 7.867188-17.578125 17.578126-17.578125h282.640624c9.710938 0 17.578126 7.867187 17.578126 17.578125zm0 0" fill="#28384c"/><path d="m229.515625 79.449219h-8.824219c-4.875 0-8.828125-3.957031-8.828125-8.828125 0-4.875 3.953125-8.828125 8.828125-8.828125h8.824219c4.875 0 8.828125 3.953125 8.828125 8.828125 0 4.871094-3.953125 8.828125-8.828125 8.828125zm0 0" fill="#23a24d"/><path d="m185.378906 79.449219h-8.828125c-4.871093 0-8.828125-3.957031-8.828125-8.828125 0-4.875 3.957032-8.828125 8.828125-8.828125h8.828125c4.875 0 8.828125 3.953125 8.828125 8.828125 0 4.871094-3.953125 8.828125-8.828125 8.828125zm0 0" fill="#ebba16"/><path d="m141.242188 79.449219h-8.828126c-4.875 0-8.828124-3.957031-8.828124-8.828125 0-4.875 3.953124-8.828125 8.828124-8.828125h8.828126c4.871093 0 8.828124 3.953125 8.828124 8.828125 0 4.871094-3.957031 8.828125-8.828124 8.828125zm0 0" fill="#dd352e"/><path d="m264.828125 158.898438h-123.585937c-4.875 0-8.828126-3.957032-8.828126-8.828126 0-4.875 3.953126-8.828124 8.828126-8.828124h123.585937c4.871094 0 8.828125 3.953124 8.828125 8.828124 0 4.871094-3.957031 8.828126-8.828125 8.828126zm0 0" fill="#366db6"/><path d="m370.757812 158.898438h-61.792968c-4.871094 0-8.828125-3.957032-8.828125-8.828126 0-4.875 3.957031-8.828124 8.828125-8.828124h61.792968c4.875 0 8.828126 3.953124 8.828126 8.828124 0 4.871094-3.953126 8.828126-8.828126 8.828126zm0 0" fill="#dd352e"/><path d="m176.550781 194.207031h-35.308593c-4.875 0-8.828126-3.953125-8.828126-8.828125 0-4.871094 3.953126-8.828125 8.828126-8.828125h35.308593c4.875 0 8.828125 3.957031 8.828125 8.828125 0 4.875-3.953125 8.828125-8.828125 8.828125zm0 0" fill="#ebba16"/><path d="m370.757812 194.207031h-150.066406c-4.875 0-8.828125-3.953125-8.828125-8.828125 0-4.871094 3.953125-8.828125 8.828125-8.828125h150.066406c4.875 0 8.828126 3.957031 8.828126 8.828125 0 4.875-3.953126 8.828125-8.828126 8.828125zm0 0" fill="#75348b"/><path d="m273.65625 229.515625h-132.414062c-4.875 0-8.828126-3.953125-8.828126-8.824219 0-4.875 3.953126-8.828125 8.828126-8.828125h132.414062c4.871094 0 8.828125 3.953125 8.828125 8.828125 0 4.871094-3.957031 8.824219-8.828125 8.824219zm0 0" fill="#57abc1"/><path d="m344.277344 229.515625h-35.3125c-4.871094 0-8.828125-3.953125-8.828125-8.824219 0-4.875 3.957031-8.828125 8.828125-8.828125h35.3125c4.871094 0 8.824218 3.953125 8.824218 8.828125 0 4.871094-3.953124 8.824219-8.824218 8.824219zm0 0" fill="#f76363"/></svg>