<svg height="511pt" viewBox="0 -8 511.99985 511" width="511pt" xmlns="http://www.w3.org/2000/svg"><path d="m511.417969 403.292969c-6.179688-18.484375-36.660157-19.339844-51.871094-12.527344-20.726563 9.289063-44.164063 11.160156-66.726563 12.449219-9.632812.546875-19.253906 1.269531-28.875 2.066406-7.382812.609375-14.707031 1.816406-22.105468 2.222656-1.296875.070313-4.195313.679688-5.367188.152344-2.058594-.917969-.988281-.285156-1.484375-2.554688-1.191406-5.460937-1.914062-11.269531-3.988281-16.515624-2.542969-6.40625-7.59375-11.226563-14.558594-13.152344-10.160156-2.808594-21.328125-2.558594-31.691406-1.015625-11.492188 1.714843-21.707031 6.796875-32.976562 9.253906-18.847657 4.09375-38.800782-.671875-55.871094-8.46875-8.632813-3.9375-16.816406-8.789063-24.328125-14.421875-7.902344-5.925781-14.992188-12.730469-23.976563-17.242188-6.234375-3.125-12.898437-5.550781-19.84375-6.777343-10.691406-1.890625-21.664062-.34375-31.4375 4.140625-12.058594 5.515625-20.265625 16.46875-32.554687 21.722656-11.121094 4.75-23.207031 7.222656-34.65625 11.160156-6.78125 2.3125-22.308594 12.851563-29.105469 15.128906v105.929688c31.230469-13.0625 83.164062-24.558594 117.210938-28.28125 17.816406-1.945312 35.804687-1.042969 53.53125 1.234375 17.496093 2.242187 35.152343 7.785156 52.605468 8.871094 14.28125.890625 30.488282 2.347656 44.667969.390625 15.402344-2.128906 29.484375-9.15625 44.046875-13.976563 14.214844-4.695312 29.183594-7.300781 44.226562-7.742187 15.792969-.457032 30.136719 1.414062 45.859376-1.703125 7.917968-1.570313 15.40625-5.191407 23.023437-7.828125 14.988281-5.191406 29.976563-10.375 44.96875-15.5625 10.75-3.726563 21.503906-7.441406 32.28125-11.105469 6.621094-2.253906 11.265625-9.050781 8.996094-15.847656zm0 0" fill="#fbce9d"/><path d="m252.125 439.609375c-16.402344 0-32.847656-.980469-49.082031-2.9375-20.621094-2.480469-47.191407-7-69.773438-20.066406-4.21875-2.445313-5.65625-7.847657-3.222656-12.066407 2.4375-4.21875 7.847656-5.667968 12.058594-3.222656 19.800781 11.457032 44.09375 15.546875 63.046875 17.824219 20.226562 2.433594 40.800781 3.300781 61.148437 2.550781l1.527344-.054687c17.214844-.617188 35.011719-1.253907 48.984375-9.328125 4.945312-2.851563 9.359375-6.417969 13.128906-10.585938 3.273438-3.621094 8.851563-3.894531 12.472656-.625 3.609376 3.273438 3.890626 8.851563.625 12.472656-5.003906 5.523438-10.847656 10.246094-17.378906 14.027344-17.78125 10.28125-38.71875 11.03125-57.195312 11.6875l-1.519532.050782c-4.933593.1875-9.878906.273437-14.820312.273437zm0 0" fill="#ea7f5f"/><path d="m264.828125 124.085938h211.863281v167.722656h-211.863281zm0 0" fill="#ebba16"/><path d="m264.828125 274.15625h211.863281v35.308594h-211.863281zm0 0" fill="#28384c"/><path d="m397.242188 185.878906c0-16.191406-14.523438-28.980468-31.242188-26.066406-10.699219 1.863281-19.445312 10.671875-21.308594 21.371094-1.6875 9.691406 1.976563 18.503906 8.410156 24.300781v15.707031c0 9.753906 7.902344 17.652344 17.65625 17.652344 9.753907 0 17.65625-7.898438 17.65625-17.652344v-15.707031c5.382813-4.84375 8.828126-11.792969 8.828126-19.605469zm0 0" fill="#28384c"/><path d="m370.757812.5c-43.882812 0-79.449218 35.566406-79.449218 79.449219v44.136719h35.3125v-44.136719c0-24.375 19.765625-44.140625 44.136718-44.140625 24.375 0 44.140626 19.765625 44.140626 44.140625v44.136719h35.308593v-44.136719c0-43.882813-35.566406-79.449219-79.449219-79.449219zm0 0" fill="#e7eced"/></svg>