<svg height="512pt" viewBox="0 0 512 512" width="512pt" xmlns="http://www.w3.org/2000/svg"><g fill-rule="evenodd"><path d="m481.101562 512h-450.203124c-17.066407 0-30.898438-13.832031-30.898438-30.898438v-392.824218h512v392.824218c0 17.066407-13.832031 30.898438-30.898438 30.898438zm0 0" fill="#e7eced"/><path d="m512 105.929688h-512v-75.03125c0-17.066407 13.832031-30.898438 30.898438-30.898438h450.203124c17.066407 0 30.898438 13.832031 30.898438 30.898438zm0 0" fill="#28384c"/><path d="m35.308594 35.308594h35.3125v35.3125h-35.3125zm0 0" fill="#dd352e"/><path d="m105.929688 35.308594h35.3125v35.3125h-35.3125zm0 0" fill="#ebba16"/><path d="m176.550781 35.308594h35.3125v35.3125h-35.3125zm0 0" fill="#23a24d"/></g><path d="m114.757812 194.207031c0 14.625-11.855468 26.484375-26.480468 26.484375-14.628906 0-26.484375-11.859375-26.484375-26.484375s11.855469-26.484375 26.484375-26.484375c14.625 0 26.480468 11.859375 26.480468 26.484375zm0 0" fill="#dd352e"/><path d="m450.207031 308.964844c0 14.625-11.855469 26.484375-26.484375 26.484375-14.625 0-26.480468-11.859375-26.480468-26.484375s11.855468-26.480469 26.480468-26.480469c14.628906 0 26.484375 11.855469 26.484375 26.480469zm0 0" fill="#366db6"/><path d="m114.757812 423.722656c0 14.628906-11.855468 26.484375-26.480468 26.484375-14.628906 0-26.484375-11.855469-26.484375-26.484375 0-14.625 11.855469-26.480468 26.484375-26.480468 14.625 0 26.480468 11.855468 26.480468 26.480468zm0 0" fill="#ebba16"/><path d="m406.070312 185.378906h-247.171874c-4.875 0-8.828126-3.953125-8.828126-8.828125 0-4.871093 3.953126-8.828125 8.828126-8.828125h247.171874c4.871094 0 8.828126 3.957032 8.828126 8.828125 0 4.875-3.957032 8.828125-8.828126 8.828125zm0 0" fill="#ebba16"/><path d="m450.207031 220.691406h-291.308593c-4.875 0-8.828126-3.957031-8.828126-8.828125 0-4.875 3.953126-8.828125 8.828126-8.828125h291.308593c4.871094 0 8.828125 3.953125 8.828125 8.828125 0 4.871094-3.957031 8.828125-8.828125 8.828125zm0 0" fill="#dc691d"/><path d="m308.964844 300.136719h-247.171875c-4.871094 0-8.828125-3.953125-8.828125-8.828125 0-4.871094 3.957031-8.824219 8.828125-8.824219h247.171875c4.875 0 8.828125 3.953125 8.828125 8.824219 0 4.875-3.953125 8.828125-8.828125 8.828125zm0 0" fill="#61b872"/><path d="m353.101562 335.449219h-291.308593c-4.871094 0-8.828125-3.957031-8.828125-8.828125 0-4.875 3.957031-8.828125 8.828125-8.828125h291.308593c4.875 0 8.828126 3.953125 8.828126 8.828125 0 4.871094-3.953126 8.828125-8.828126 8.828125zm0 0" fill="#57abc1"/><path d="m406.070312 414.898438h-247.171874c-4.875 0-8.828126-3.957032-8.828126-8.828126 0-4.875 3.953126-8.828124 8.828126-8.828124h247.171874c4.871094 0 8.828126 3.953124 8.828126 8.828124 0 4.871094-3.957032 8.828126-8.828126 8.828126zm0 0" fill="#75348b"/><path d="m450.207031 450.207031h-291.308593c-4.875 0-8.828126-3.953125-8.828126-8.828125 0-4.871094 3.953126-8.828125 8.828126-8.828125h291.308593c4.871094 0 8.828125 3.957031 8.828125 8.828125 0 4.875-3.957031 8.828125-8.828125 8.828125zm0 0" fill="#f76363"/></svg>