<svg width="75" height="75" viewBox="0 0 75 75" fill="none" xmlns="http://www.w3.org/2000/svg">
<path fill-rule="evenodd" clip-rule="evenodd" d="M37.5 75C58.2107 75 75 58.2107 75 37.5C75 16.7893 58.2107 0 37.5 0C16.7893 0 0 16.7893 0 37.5C0 58.2107 16.7893 75 37.5 75ZM28.625 13H47.375C56.0031 13 63 19.9969 63 28.625V47.375C63 56.0031 56.0031 63 47.375 63H28.625C19.9969 63 13 56.0031 13 47.375V28.625C13 19.9969 19.9969 13 28.625 13ZM47.375 58.3125C53.4062 58.3125 58.3125 53.4062 58.3125 47.375V28.625C58.3125 22.5938 53.4062 17.6875 47.375 17.6875H28.625C22.5938 17.6875 17.6875 22.5938 17.6875 28.625V47.375C17.6875 53.4062 22.5938 58.3125 28.625 58.3125H47.375ZM38 25.5C31.0969 25.5 25.5 31.0969 25.5 38C25.5 44.9031 31.0969 50.5 38 50.5C44.9031 50.5 50.5 44.9031 50.5 38C50.5 31.0969 44.9031 25.5 38 25.5ZM38 45.8125C33.6937 45.8125 30.1875 42.3063 30.1875 38C30.1875 33.6906 33.6937 30.1875 38 30.1875C42.3063 30.1875 45.8125 33.6906 45.8125 38C45.8125 42.3063 42.3063 45.8125 38 45.8125ZM53.1032 24.5625C53.1032 25.4824 52.3575 26.2281 51.4376 26.2281C50.5177 26.2281 49.7719 25.4824 49.7719 24.5625C49.7719 23.6426 50.5177 22.8969 51.4376 22.8969C52.3575 22.8969 53.1032 23.6426 53.1032 24.5625Z" fill="white"/>
</svg>
