<svg height="512pt" viewBox="0 0 512.00046 512" width="512pt" xmlns="http://www.w3.org/2000/svg"><path d="m511.984375 383.332031v77.074219c.113281 28.378906-22.847656 51.472656-51.28125 51.585938-1.613281.011718-3.230469-.058594-4.847656-.210938-79.21875-8.589844-155.300781-35.601562-222.164063-78.875-62.199218-39.449219-114.933594-92.078125-154.453125-154.15625-43.503906-67.007812-70.578125-143.324219-79.027343-222.734375-2.558594-28.269531 18.328124-53.25 46.644531-55.800781 1.527343-.1406252 3.054687-.21093775 4.582031-.21093775h77.234375c25.835937-.25781225 47.871094 18.65234375 51.480469 44.19140575 3.257812 24.664063 9.304687 48.886719 18.019531 72.191407 7.070313 18.773437 2.550781 39.945312-11.582031 54.210937l-32.699219 32.625c36.644531 64.316406 90.007813 117.574219 154.457031 154.15625l32.699219-32.625c14.289063-14.109375 35.503906-18.621094 54.316406-11.566406 23.355469 8.695312 47.625 14.734375 72.339844 17.980469 25.890625 3.65625 44.933594 26.078125 44.28125 52.164062zm0 0" fill="#23a24d"/><path d="m52.964844 150.070312c-3.804688 0-7.308594-2.46875-8.457032-6.300781-8.589843-28.789062-14.636718-59.25-17.960937-90.5625-.796875-8.898437 3.742187-15.378906 5.726563-17.742187 2.464843-2.957032 7.953124-8.050782 16.957031-8.875.742187-.070313 1.476562-.105469 2.207031-.105469h72.148438c4.875 0 8.828124 3.945313 8.828124 8.828125s-3.953124 8.828125-8.828124 8.828125h-72.148438c-3.273438.273437-4.878906 1.765625-5.605469 2.628906-.464843.558594-1.914062 2.480469-1.710937 4.722657 3.195312 30.078124 9.019531 59.480468 17.300781 87.226562 1.394531 4.671875-1.261719 9.597656-5.929687 10.980469-.839844.25-1.695313.371093-2.527344.371093zm0 0" fill="#187c36"/><path d="m460.597656 485.519531c-.175781 0-1.722656-.035156-2.480468-.113281-31.304688-3.398438-61.511719-9.421875-89.882813-17.914062-4.667969-1.394532-7.328125-6.320313-5.921875-10.988282 1.402344-4.671875 6.328125-7.28125 10.988281-5.921875 27.347657 8.191407 56.496094 14 86.632813 17.265625l.777344.015625c1.785156-.007812 3.621093-.773437 5.007812-2.160156 1.382812-1.394531 2.144531-3.265625 2.136719-5.261719l.007812-72.023437c0-4.882813 3.953125-8.828125 8.828125-8.828125 4.871094 0 8.828125 3.953125 8.828125 8.828125l-.011719 71.988281c.027344 6.671875-2.550781 12.984375-7.253906 17.726562-4.707031 4.738282-10.972656 7.359376-17.65625 7.386719zm0 0" fill="#187c36"/><path d="m512 17.683594v176.492187c0 9.769531-7.917969 17.6875-17.679688 17.6875h-150.042968l-70.621094 61.792969v-61.792969h-17.628906c-9.765625 0-17.683594-7.917969-17.683594-17.679687v-176.492188c0-9.769531 7.917969-17.68749975 17.683594-17.68749975h238.28125c9.773437 0 17.691406 7.91796875 17.691406 17.67968775zm0 0" fill="#366db6"/><path d="m450.207031 110.808594v-9.738282l-2.621093-.328124c-8.007813-.996094-15.078126-6.152344-17.921876-13.707032-.359374-.964844-.75-1.917968-1.171874-2.851562-3.371094-7.59375-1.953126-16.480469 3.152343-23.039063l1.324219-1.695312-6.886719-6.886719-1.695312 1.316406c-6.558594 5.101563-15.449219 6.523438-23.039063 3.148438-.945312-.414063-1.890625-.808594-2.851562-1.171875-7.558594-2.84375-12.703125-9.914063-13.710938-17.921875l-.324218-2.621094h-9.738282l-.328125 2.613281c-.996093 8.007813-6.152343 15.078125-13.707031 17.921875-.964844.359375-1.917969.75-2.851562 1.171875-7.59375 3.371094-16.480469 1.953125-23.039063-3.152343l-1.695313-1.324219-6.886718 6.886719 1.324218 1.695312c5.101563 6.558594 6.523438 15.441406 3.152344 23.039062-.414062.945313-.8125 1.890626-1.175781 2.851563-2.839844 7.558594-9.914063 12.703125-17.917969 13.710937l-2.632812.335938v9.734375l2.621094.328125c8.007812.996094 15.078124 6.152344 17.921874 13.707031.363282.964844.75 1.917969 1.175782 2.851563 3.371094 7.59375 1.949218 16.484375-3.152344 23.042968l-1.324219 1.691407 6.882813 6.886719 1.695312-1.316407c6.558594-5.101562 15.449219-6.523437 23.042969-3.148437.941406.414062 1.886719.8125 2.851563 1.171875 7.554687 2.84375 12.703124 9.914062 13.707031 17.921875l.328125 2.621094h9.734375l.328125-2.613282c.996094-8.007812 6.152344-15.078125 13.710937-17.917968.960938-.363282 1.914063-.753907 2.847657-1.175782 7.59375-3.371094 16.484374-1.949218 23.042968 3.152344l1.695313 1.3125 6.882812-6.882812-1.324219-1.695313c-5.101562-6.558594-6.523437-15.441406-3.148437-23.039063.414063-.945312.808594-1.890624 1.171875-2.851562 2.84375-7.558594 9.914062-12.703125 17.921875-13.710938zm0 0" fill="#e7eced"/><path d="m361.929688 88.277344h35.3125v35.3125h-35.3125zm0 0" fill="#afb6bb"/></svg>