<svg height="512pt" viewBox="-31 0 512 512" width="512pt" xmlns="http://www.w3.org/2000/svg"><path d="m259.398438 0h-236.3125c-12.75 0-23.085938 10.335938-23.085938 23.085938v465.828124c0 12.75 10.335938 23.085938 23.085938 23.085938h236.320312c12.738281 0 23.078125-10.335938 23.078125-23.085938v-465.828124c0-12.75-10.339844-23.085938-23.085937-23.085938zm0 0" fill="#e7eced"/><path d="m450.207031 220.691406c0 82.878906-67.1875 150.066406-150.070312 150.066406-82.878907 0-150.066407-67.1875-150.066407-150.066406 0-82.882812 67.1875-150.070312 150.066407-150.070312 82.882812 0 150.070312 67.1875 150.070312 150.070312zm0 0" fill="#366db6"/><g fill="#839594"><path d="m185.378906 44.136719h-88.277344c-4.871093 0-8.824218-3.945313-8.824218-8.828125 0-4.878906 3.953125-8.824219 8.824218-8.824219h88.277344c4.875 0 8.828125 3.945313 8.828125 8.824219 0 4.882812-3.953125 8.828125-8.828125 8.828125zm0 0"/><path d="m247.171875 44.136719h-8.828125c-4.871094 0-8.828125-3.945313-8.828125-8.828125 0-4.878906 3.957031-8.824219 8.828125-8.824219h8.828125c4.875 0 8.828125 3.945313 8.828125 8.824219 0 4.882812-3.953125 8.828125-8.828125 8.828125zm0 0"/><path d="m152.195312 476.691406h-21.917968c-8.570313 0-15.519532-6.949218-15.519532-15.53125v-4.261718c0-8.570313 6.949219-15.519532 15.527344-15.519532h21.921875c8.570313 0 15.515625 6.949219 15.515625 15.527344v4.265625c0 8.570313-6.945312 15.519531-15.527344 15.519531zm0 0"/><path d="m35.308594 97.101562c-4.871094 0-8.824219-3.945312-8.824219-8.824218v-26.484375c0-4.882813 3.953125-8.828125 8.824219-8.828125h26.484375c4.871093 0 8.828125 3.945312 8.828125 8.828125 0 4.882812-3.957032 8.828125-8.828125 8.828125h-17.65625v17.65625c0 4.878906-3.953125 8.824218-8.828125 8.824218zm0 0"/><path d="m247.171875 441.378906h-26.480469c-4.875 0-8.828125-3.945312-8.828125-8.828125 0-4.878906 3.953125-8.828125 8.828125-8.828125h17.652344v-17.652344c0-4.882812 3.957031-8.828124 8.828125-8.828124 4.875 0 8.828125 3.945312 8.828125 8.828124v26.480469c0 4.882813-3.953125 8.828125-8.828125 8.828125zm0 0"/></g><path d="m300.136719 194.207031h-26.480469c-19.476562 0-35.3125-15.835937-35.3125-35.308593 0-19.476563 15.835938-35.3125 35.3125-35.3125 19.472656 0 35.308594 15.835937 35.308594 35.3125v26.480468c0 4.882813-3.953125 8.828125-8.828125 8.828125zm-26.480469-52.964843c-9.738281 0-17.65625 7.917968-17.65625 17.65625 0 9.734374 7.917969 17.652343 17.65625 17.652343h17.652344v-17.652343c0-9.738282-7.917969-17.65625-17.652344-17.65625zm0 0" fill="#fff"/><path d="m326.621094 194.207031h-26.484375c-4.871094 0-8.828125-3.945312-8.828125-8.828125v-26.480468c0-19.476563 15.839844-35.3125 35.3125-35.3125s35.308594 15.835937 35.308594 35.3125c0 19.472656-15.835938 35.308593-35.308594 35.308593zm-17.65625-17.65625h17.65625c9.738281 0 17.65625-7.917969 17.65625-17.652343 0-9.738282-7.917969-17.65625-17.65625-17.65625-9.738282 0-17.65625 7.917968-17.65625 17.65625zm0 0" fill="#fff"/><path d="m220.691406 203.035156h158.894532v97.101563h-158.894532zm0 0" fill="#dd352e"/><path d="m203.035156 176.550781h194.207032v35.3125h-194.207032zm0 0" fill="#b02721"/><path d="m282.484375 211.863281h35.308594v88.273438h-35.308594zm0 0" fill="#ebba16"/></svg>