<svg height="512pt" viewBox="0 0 512 512" width="512pt" xmlns="http://www.w3.org/2000/svg"><path d="m185.378906 251.585938h137.929688v24.824218h-137.929688zm0 0" fill="#12662a"/><path d="m238.34375 97.101562c0-34.125-27.664062-61.792968-61.792969-61.792968-34.125 0-61.792969 27.667968-61.792969 61.792968 0 9.492188 2.207032 18.453126 6.03125 26.484376h2.796876v17.65625h114.757812v-17.65625h-6.027344c3.820313-8.03125 6.027344-16.992188 6.027344-26.484376zm0 0" fill="#e7eced"/><path d="m106.035156 512h273.445313c14.679687 0 26.589843-11.910156 26.589843-26.589844v-220.582031h-326.621093v220.582031c0 14.679688 11.90625 26.589844 26.585937 26.589844zm0 0" fill="#6c4127"/><path d="m26.457031 512h203.058594v-264.828125h-209.925781c-10.816406 0-19.589844 8.773437-19.589844 19.589844v218.773437c0 14.617188 11.847656 26.464844 26.457031 26.464844zm0 0" fill="#4f2e1b"/><path d="m485.542969 512h-203.058594v-256h225.101563c2.4375 0 4.414062 1.976562 4.414062 4.414062v225.128907c0 14.609375-11.847656 26.457031-26.457031 26.457031zm0 0" fill="#4f2e1b"/><path d="m494.328125 0h-194.171875c-9.765625 0-17.671875 7.917969-17.671875 17.683594v105.886718.023438 17.65625h211.84375c9.761719-.007812 17.671875-7.925781 17.671875-17.691406v-105.875c0-9.765625-7.910156-17.683594-17.671875-17.683594zm0 0" fill="#366db6"/><path d="m282.484375 35.308594h229.515625v35.3125h-229.515625zm0 0" fill="#ebba16"/><path d="m203.035156 97.101562c0 14.628907-11.855468 26.484376-26.484375 26.484376-14.625 0-26.480469-11.855469-26.480469-26.484376 0-14.625 11.855469-26.480468 26.480469-26.480468 14.628907 0 26.484375 11.855468 26.484375 26.480468zm0 0" fill="#afb6bb"/><path d="m88.277344 44.136719c0 24.378906-19.761719 44.140625-44.140625 44.140625-24.375 0-44.136719-19.761719-44.136719-44.140625 0-24.375 19.761719-44.136719 44.136719-44.136719 24.378906 0 44.140625 19.761719 44.140625 44.136719zm0 0" fill="#bf5a45"/><path d="m52.964844 52.964844h-17.65625c-4.871094 0-8.824219-3.945313-8.824219-8.828125 0-4.878907 3.953125-8.828125 8.824219-8.828125h17.65625c4.875 0 8.828125 3.949218 8.828125 8.828125 0 4.882812-3.953125 8.828125-8.828125 8.828125zm0 0" fill="#6c342a"/><path d="m450.207031 335.449219h-105.929687c-1.742188 0-3.453125-.523438-4.902344-1.484375l-24.257812-16.171875h-32.632813v-17.65625h35.308594c1.738281 0 3.453125.523437 4.898437 1.484375l24.257813 16.171875h100.589843l24.261719-16.171875c1.4375-.960938 3.148438-1.484375 4.890625-1.484375h35.308594v17.65625h-32.636719l-24.257812 16.171875c-1.445313.960937-3.160157 1.484375-4.898438 1.484375zm0 0" fill="#381e12"/><path d="m450.207031 388.414062h-105.929687c-1.742188 0-3.453125-.519531-4.902344-1.484374l-24.257812-16.171876h-32.632813v-17.65625h35.308594c1.738281 0 3.453125.523438 4.898437 1.484376l24.257813 16.171874h100.589843l24.261719-16.171874c1.4375-.960938 3.148438-1.484376 4.890625-1.484376h35.308594v17.65625h-32.636719l-24.257812 16.171876c-1.445313.964843-3.160157 1.484374-4.898438 1.484374zm0 0" fill="#381e12"/><path d="m344.277344 423.722656h105.929687v44.140625h-105.929687zm0 0" fill="#e7eced"/><g fill="#381e12"><path d="m132.414062 450.207031h-88.277343c-4.871094 0-8.828125-3.945312-8.828125-8.828125 0-4.882812 3.957031-8.828125 8.828125-8.828125h88.277343c4.871094 0 8.828126 3.945313 8.828126 8.828125 0 4.882813-3.957032 8.828125-8.828126 8.828125zm0 0"/><path d="m185.378906 450.207031h-17.65625c-4.871094 0-8.824218-3.945312-8.824218-8.828125 0-4.882812 3.953124-8.828125 8.824218-8.828125h17.65625c4.875 0 8.828125 3.945313 8.828125 8.828125 0 4.882813-3.953125 8.828125-8.828125 8.828125zm0 0"/><path d="m185.378906 485.515625h-88.277344c-4.871093 0-8.824218-3.945313-8.824218-8.824219 0-4.882812 3.953125-8.828125 8.824218-8.828125h88.277344c4.875 0 8.828125 3.945313 8.828125 8.828125 0 4.878906-3.953125 8.824219-8.828125 8.824219zm0 0"/><path d="m61.792969 485.515625h-17.65625c-4.871094 0-8.828125-3.945313-8.828125-8.824219 0-4.882812 3.957031-8.828125 8.828125-8.828125h17.65625c4.871093 0 8.828125 3.945313 8.828125 8.828125 0 4.878906-3.957032 8.824219-8.828125 8.824219zm0 0"/><path d="m158.898438 335.449219h-88.277344c-39 0-70.621094-31.621094-70.621094-70.621094h229.515625c0 39-31.617187 70.621094-70.617187 70.621094zm0 0"/></g><path d="m61.792969 335.449219h105.929687v70.621093h-105.929687zm0 0" fill="#e7eced"/><path d="m132.414062 379.585938h-35.3125c-4.871093 0-8.824218-3.945313-8.824218-8.828126 0-4.878906 3.953125-8.828124 8.824218-8.828124h35.3125c4.871094 0 8.828126 3.949218 8.828126 8.828124 0 4.882813-3.957032 8.828126-8.828126 8.828126zm0 0" fill="#afb6bb"/><path d="m44.136719 123.585938h423.726562v141.242187h-423.726562zm0 0" fill="#23a24d"/><path d="m414.898438 238.34375v-44.136719c-19.519532 0-35.3125-15.792969-35.3125-35.308593h-247.171876c0 19.515624-15.792968 35.308593-35.3125 35.308593v70.621094h317.796876zm0 0" fill="#177f37"/><path d="m317.097656 264.828125c6.019532-10.398437 9.523438-22.429687 9.523438-35.3125 0-39-31.621094-70.617187-70.621094-70.617187s-70.621094 31.617187-70.621094 70.617187c0 12.882813 3.503906 24.914063 9.523438 35.3125zm0 0" fill="#12662a"/><path d="m150.070312 238.34375h-17.65625c-4.875 0-8.828124-3.945312-8.828124-8.828125 0-4.878906 3.953124-8.824219 8.828124-8.824219h17.65625c4.871094 0 8.828126 3.945313 8.828126 8.824219 0 4.882813-3.957032 8.828125-8.828126 8.828125zm0 0" fill="#47c46d"/><path d="m379.585938 238.34375h-17.65625c-4.871094 0-8.828126-3.945312-8.828126-8.828125 0-4.878906 3.957032-8.824219 8.828126-8.824219h17.65625c4.875 0 8.828124 3.945313 8.828124 8.824219 0 4.882813-3.953124 8.828125-8.828124 8.828125zm0 0" fill="#47c46d"/><path d="m44.136719 264.828125h-44.136719v-8.757813c0-14.664062 11.890625-26.554687 26.554688-26.554687h17.582031zm0 0" fill="#6c4127"/><path d="m467.863281 264.828125h44.136719v-8.757813c0-14.664062-11.890625-26.554687-26.554688-26.554687h-17.582031zm0 0" fill="#6c4127"/><path d="m220.691406 238.34375c4.871094 0 8.824219-3.945312 8.824219-8.828125 0-14.597656 11.882813-26.480469 26.484375-26.480469s26.484375 11.882813 26.484375 26.480469c0 14.601563-11.882813 26.484375-26.484375 26.484375-4.871094 0-8.828125 3.945312-8.828125 8.828125h35.039063c10.8125-8.050781 17.925781-20.824219 17.925781-35.3125 0-24.335937-19.800781-44.136719-44.136719-44.136719s-44.136719 19.800782-44.136719 44.136719c0 4.882813 3.953125 8.828125 8.828125 8.828125zm0 0" fill="#47c46d"/></svg>