<svg height="512pt" viewBox="0 -81 512 512" width="512pt" xmlns="http://www.w3.org/2000/svg"><path d="m435.199219 179.199219h-128v-110.933594h87.824219c22.1875 0 40.175781 17.988281 40.175781 40.175781zm0 0" fill="#b02721"/><path d="m460.800781 170.667969h-153.601562v102.398437h54.179687c7.039063-19.875 25.941406-34.132812 48.222656-34.132812 22.277344 0 41.1875 14.257812 48.21875 34.132812h45.644532v-59.734375c0-23.585937-19.078125-42.664062-42.664063-42.664062zm0 0" fill="#dd352e"/><path d="m315.734375 247.464844h-307.199219v-221.875c0-14.128906 11.457032-25.589844 25.589844-25.589844h256.015625c14.132813 0 25.59375 11.460938 25.59375 25.589844zm0 0" fill="#ebba16"/><path d="m42.667969 349.867188h-34.132813c-4.710937 0-8.535156-3.816407-8.535156-8.535157s3.824219-8.53125 8.535156-8.53125h34.132813c4.710937 0 8.53125 3.8125 8.53125 8.53125s-3.820313 8.535157-8.53125 8.535157zm0 0" fill="#7383bf"/><path d="m503.464844 349.867188h-196.265625c-4.710938 0-8.53125-3.816407-8.53125-8.535157s3.820312-8.53125 8.53125-8.53125h196.265625c4.710937 0 8.535156 3.8125 8.535156 8.53125s-3.824219 8.535157-8.535156 8.535157zm0 0" fill="#7383bf"/><path d="m273.066406 349.867188h-34.132812c-4.710938 0-8.535156-3.816407-8.535156-8.535157s3.824218-8.53125 8.535156-8.53125h34.132812c4.710938 0 8.535156 3.8125 8.535156 8.53125s-3.824218 8.535157-8.535156 8.535157zm0 0" fill="#7383bf"/><path d="m204.800781 349.867188h-102.402343c-4.707032 0-8.53125-3.816407-8.53125-8.535157s3.824218-8.53125 8.53125-8.53125h102.402343c4.710938 0 8.53125 3.8125 8.53125 8.53125s-3.820312 8.535157-8.53125 8.535157zm0 0" fill="#7383bf"/><path d="m384 213.332031h-25.601562c-4.707032 0-8.53125-3.8125-8.53125-8.53125s3.824218-8.535156 8.53125-8.535156h25.601562c4.710938 0 8.535156 3.816406 8.535156 8.535156s-3.824218 8.53125-8.535156 8.53125zm0 0" fill="#e7eced"/><path d="m349.867188 136.535156h85.332031v-28.09375c0-2.074218-.304688-4.0625-.605469-6.042968h-84.726562zm0 0" fill="#c6e2f7"/><path d="m8.535156 273.066406h45.644532c7.039062-19.875 25.941406-34.132812 48.21875-34.132812h-93.863282zm0 0" fill="#dc691d"/><path d="m102.398438 238.933594c22.28125 0 41.191406 14.257812 48.222656 34.132812h165.113281v-34.132812zm0 0" fill="#dc691d"/><path d="m469.332031 238.933594h34.132813v-25.601563c0-2.925781-.296875-5.777343-.859375-8.53125h-33.273438zm0 0" fill="#ebba16"/><path d="m409.601562 349.867188c-32.941406 0-59.734374-26.804688-59.734374-59.734376 0-32.929687 26.792968-59.734374 59.734374-59.734374 32.9375 0 59.730469 26.804687 59.730469 59.734374 0 32.929688-26.792969 59.734376-59.730469 59.734376zm0 0" fill="#28384c"/><path d="m102.398438 349.867188c-32.9375 0-59.730469-26.804688-59.730469-59.734376 0-32.929687 26.792969-59.734374 59.730469-59.734374 32.941406 0 59.734374 26.804687 59.734374 59.734374 0 32.929688-26.792968 59.734376-59.734374 59.734376zm0 0" fill="#28384c"/><path d="m418.3125 315.734375h-17.425781c-9.308594 0-16.886719-7.578125-16.886719-16.886719v-17.433594c0-9.304687 7.578125-16.878906 16.886719-16.878906h17.425781c9.308594 0 16.886719 7.574219 16.886719 16.886719v17.433594c0 9.300781-7.578125 16.878906-16.886719 16.878906zm0-17.066406" fill="#afb6bb"/><path d="m111.113281 315.734375h-17.425781c-9.308594 0-16.886719-7.578125-16.886719-16.886719v-17.433594c0-9.304687 7.578125-16.878906 16.886719-16.878906h17.425781c9.308594 0 16.886719 7.574219 16.886719 16.886719v17.433594c0 9.300781-7.578125 16.878906-16.886719 16.878906zm0-17.066406" fill="#afb6bb"/><g fill="#fff"><path d="m264.535156 102.398438c-2.1875 0-4.371094-.835938-6.035156-2.5-3.335938-3.335938-3.335938-8.726563 0-12.066407l25.601562-25.597656c3.328126-3.335937 8.738282-3.335937 12.066407 0 3.335937 3.335937 3.335937 8.730469 0 12.066406l-25.601563 25.597657c-1.664062 1.664062-3.847656 2.5-6.03125 2.5zm0 0"/><path d="m264.535156 102.398438c-2.1875 0-4.371094-.835938-6.035156-2.5l-25.601562-25.597657c-3.335938-3.335937-3.335938-8.730469 0-12.066406 3.328124-3.335937 8.738281-3.335937 12.066406 0l25.601562 25.597656c3.335938 3.339844 3.335938 8.730469 0 12.066407-1.664062 1.664062-3.847656 2.5-6.03125 2.5zm0 0"/><path d="m264.535156 102.398438c-4.710937 0-8.535156-3.8125-8.535156-8.53125v-51.199219h-187.734375v51.199219c0 4.71875-3.820313 8.53125-8.53125 8.53125s-8.535156-3.8125-8.535156-8.53125v-59.734376c0-4.71875 3.824219-8.53125 8.535156-8.53125h204.800781c4.707032 0 8.53125 3.8125 8.53125 8.53125v59.734376c0 4.71875-3.824218 8.53125-8.53125 8.53125zm0 0"/><path d="m136.535156 119.464844h-34.136718c-4.707032 0-8.53125-3.8125-8.53125-8.53125s3.824218-8.535156 8.53125-8.535156h25.601562v-17.066407h-25.601562c-4.707032 0-8.53125-3.8125-8.53125-8.53125s3.824218-8.535156 8.53125-8.535156h34.136718c4.707032 0 8.53125 3.816406 8.53125 8.535156v34.132813c0 4.71875-3.824218 8.53125-8.53125 8.53125zm0 0"/><path d="m204.800781 119.464844h-34.132812c-4.710938 0-8.535157-3.8125-8.535157-8.53125v-34.132813c0-4.71875 3.824219-8.535156 8.535157-8.535156 4.710937 0 8.53125 3.816406 8.53125 8.535156v25.597657h17.066406v-25.597657c0-4.71875 3.824219-8.535156 8.535156-8.535156 4.710938 0 8.53125 3.816406 8.53125 8.535156v34.132813c0 4.71875-3.820312 8.53125-8.53125 8.53125zm0 0"/><path d="m136.535156 153.601562h-34.136718c-4.707032 0-8.53125-3.816406-8.53125-8.535156v-34.132812c0-4.71875 3.824218-8.535156 8.53125-8.535156h34.136718c4.707032 0 8.53125 3.816406 8.53125 8.535156s-3.824218 8.53125-8.53125 8.53125h-25.601562v17.070312h25.601562c4.707032 0 8.53125 3.8125 8.53125 8.53125s-3.824218 8.535156-8.53125 8.535156zm0 0"/><path d="m204.800781 153.601562c-4.710937 0-8.535156-3.816406-8.535156-8.535156v-34.132812c0-4.71875 3.824219-8.535156 8.535156-8.535156 4.710938 0 8.53125 3.816406 8.53125 8.535156v34.132812c0 4.71875-3.820312 8.535156-8.53125 8.535156zm0 0"/><path d="m34.132812 179.199219c-2.183593 0-4.367187-.835938-6.03125-2.5-3.335937-3.335938-3.335937-8.730469 0-12.066407l25.597657-25.597656c3.328125-3.339844 8.738281-3.339844 12.066406 0 3.335937 3.335938 3.335937 8.726563 0 12.066406l-25.597656 25.597657c-1.664063 1.664062-3.851563 2.5-6.035157 2.5zm0 0"/><path d="m85.332031 179.199219c-2.183593 0-4.367187-.835938-6.03125-2.5l-25.601562-25.597657c-3.335938-3.339843-3.335938-8.730468 0-12.066406 3.328125-3.339844 8.738281-3.339844 12.066406 0l25.601563 25.597656c3.335937 3.335938 3.335937 8.730469 0 12.066407-1.664063 1.664062-3.847657 2.5-6.035157 2.5zm0 0"/><path d="m264.535156 213.332031h-204.800781c-4.710937 0-8.535156-3.8125-8.535156-8.53125v-59.734375c0-4.71875 3.824219-8.53125 8.535156-8.53125s8.53125 3.8125 8.53125 8.53125v51.199219h187.734375v-51.199219c0-4.71875 3.824219-8.53125 8.535156-8.53125 4.707032 0 8.53125 3.8125 8.53125 8.53125v59.734375c0 4.71875-3.824218 8.53125-8.53125 8.53125zm0 0"/></g></svg>