<svg height="512pt" viewBox="0 0 512 512" width="512pt" xmlns="http://www.w3.org/2000/svg"><path d="m512 256c0 141.386719-114.613281 256-256 256s-256-114.613281-256-256 114.613281-256 256-256 256 114.613281 256 256zm0 0" fill="#366db6"/><path d="m282.050781 209.65625c-.890625 0-1.210937-1.148438-.476562-1.679688 13.621093-9.746093 21.792969-27.011718 18.722656-46.015624-3.019531-18.628907-17.300781-33.871094-35.273437-37.472657-28.78125-5.765625-53.964844 16.796875-53.964844 45.433594 0 15.773437 7.671875 29.679687 19.351562 38.039063.730469.527343.414063 1.683593-.476562 1.683593-24.605469.011719-44.554688 20.578125-44.554688 45.957031v23.570313 3.3125c0 3.078125.707032 6.777344 2.550782 9.328125 1.941406 2.683594 4.925781 5.042969 7.425781 7.1875 7.386719 6.347656 15.941406 11.917969 25.335937 14.730469v61.960937c0 7.027344 5.515625 12.722656 12.332032 12.722656h45.953124c6.816407 0 12.332032-5.695312 12.332032-12.722656v-61.960937c9.984375-2.992188 17.628906-8.914063 25.75-15.171875 1-.769532 1.996094-1.546875 2.933594-2.382813 4.023437-3.636719 6.628906-8.195312 6.628906-13.691406v-26.882813c0-25.378906-19.949219-45.945312-44.570313-45.945312zm0 0" fill="#fff"/><g fill="#1f436d"><path d="m467.863281 256c-4.875 0-8.828125-3.953125-8.828125-8.828125.015625-54.527344-23.984375-105.460937-67.585937-143.402344-3.679688-3.207031-4.058594-8.777343-.863281-12.457031 3.203124-3.679688 8.773437-4.050781 12.457031-.863281 47.507812 41.347656 73.664062 97.003906 73.648437 156.722656 0 4.875-3.957031 8.828125-8.828125 8.828125zm0 0"/><path d="m335.246094 65.507812c-1.015625 0-2.050782-.175781-3.054688-.546874-21.523437-7.953126-44.191406-11.988282-67.363281-11.996094-4.875 0-8.828125-3.953125-8.828125-8.828125 0-4.871094 3.953125-8.828125 8.828125-8.828125 25.273437.011718 49.988281 4.414062 73.472656 13.09375 4.570313 1.683594 6.910157 6.761718 5.226563 11.34375-1.316406 3.554687-4.6875 5.761718-8.28125 5.761718zm0 0"/><path d="m114.757812 423.722656c-2.003906 0-4.007812-.679687-5.65625-2.054687-48.296874-40.421875-73.808593-94.667969-73.792968-156.839844 0-4.875 3.957031-8.828125 8.828125-8.828125 4.875 0 8.828125 3.953125 8.828125 8.828125-.015625 56.789063 23.3125 106.335937 67.460937 143.296875 3.742188 3.125 4.230469 8.695312 1.105469 12.4375-1.75 2.085938-4.257812 3.160156-6.773438 3.160156zm0 0"/><path d="m247.136719 476.691406c-23.761719 0-47.105469-3.914062-69.375-11.636718-4.609375-1.597657-7.046875-6.621094-5.445313-11.226563 1.597656-4.601563 6.617188-7.0625 11.226563-5.449219 20.402343 7.070313 41.796875 10.65625 63.59375 10.65625 5.03125-.140625 8.863281 3.9375 8.863281 8.828125 0 4.878907-3.859375 8.886719-8.863281 8.828125zm0 0"/></g><path d="m203.035156 308.964844c-14.601562 0-26.484375-11.882813-26.484375-26.480469v-26.484375c0-4.871094 3.957031-8.828125 8.828125-8.828125 4.875 0 8.828125 3.957031 8.828125 8.828125v26.484375c0 4.863281 3.953125 8.824219 8.828125 8.824219 4.871094 0 8.828125-3.960938 8.828125-8.824219v-26.484375c0-4.871094 3.953125-8.828125 8.828125-8.828125 4.871094 0 8.824219 3.957031 8.824219 8.828125v26.484375c0 14.597656-11.878906 26.480469-26.480469 26.480469zm0 0" fill="#afb6bb"/><path d="m308.964844 308.964844c-14.601563 0-26.480469-11.882813-26.480469-26.480469v-26.484375c0-4.871094 3.953125-8.828125 8.824219-8.828125 4.875 0 8.828125 3.957031 8.828125 8.828125v26.484375c0 4.863281 3.957031 8.824219 8.828125 8.824219 4.875 0 8.828125-3.960938 8.828125-8.824219v-26.484375c0-4.871094 3.953125-8.828125 8.828125-8.828125 4.871094 0 8.828125 3.957031 8.828125 8.828125v26.484375c0 14.597656-11.882813 26.480469-26.484375 26.480469zm0 0" fill="#afb6bb"/><path d="m264.828125 388.414062v-70.621093c0-4.871094-3.957031-8.828125-8.828125-8.828125s-8.828125 3.957031-8.828125 8.828125v70.621093zm0 0" fill="#afb6bb"/></svg>