<svg height="512pt" viewBox="0 0 512 512" width="512pt" xmlns="http://www.w3.org/2000/svg"><path d="m334.699219 280.417969-87.527344 37.375-69.859375-37.375c-11.523438 11.253906-18.414062 27.542969-18.414062 45.664062v27.019531h194.203124v-27.019531c0-18.121093-6.882812-34.410156-18.402343-45.664062zm0 0" fill="#ebba16"/><path d="m158.898438 79.449219c0 43.878906-35.570313 79.449219-79.449219 79.449219-43.878907 0-79.449219-35.570313-79.449219-79.449219 0-43.878907 35.570312-79.449219 79.449219-79.449219 43.878906 0 79.449219 35.570312 79.449219 79.449219zm0 0" fill="#e7eced"/><path d="m105.929688 61.792969c0 14.625-11.855469 26.484375-26.480469 26.484375-14.628907 0-26.484375-11.859375-26.484375-26.484375s11.855468-26.484375 26.484375-26.484375c14.625 0 26.480469 11.859375 26.480469 26.484375zm0 0" fill="#afb6bb"/><path d="m105.058594 123.585938h-51.21875c-10.230469 0-18.53125 7.960937-18.53125 17.789062v4.121094c12.625 8.457031 27.800781 13.402344 44.140625 13.402344 16.339843 0 31.511719-4.945313 44.136719-13.402344v-4.121094c0-9.828125-8.296876-17.789062-18.527344-17.789062zm0 0" fill="#afb6bb"/><g fill="#dd352e"><path d="m317.792969 88.277344c-2.257813 0-4.519531-.867188-6.242188-2.589844l-26.480469-26.480469c-3.453124-3.453125-3.453124-9.03125 0-12.484375 3.449219-3.449218 9.03125-3.449218 12.480469 0l26.484375 26.484375c3.449219 3.453125 3.449219 9.03125 0 12.480469-1.722656 1.722656-3.980468 2.589844-6.242187 2.589844zm0 0"/><path d="m291.308594 114.757812c-2.257813 0-4.519532-.863281-6.238282-2.585937-3.453124-3.453125-3.453124-9.03125 0-12.480469l26.480469-26.484375c3.453125-3.453125 9.03125-3.453125 12.484375 0 3.449219 3.453125 3.449219 9.03125 0 12.480469l-26.484375 26.484375c-1.722656 1.722656-3.980469 2.585937-6.242187 2.585937zm0 0"/><path d="m317.792969 88.277344h-123.585938c-4.871093 0-8.828125-3.949219-8.828125-8.828125 0-4.882813 3.957032-8.828125 8.828125-8.828125h123.585938c4.871093 0 8.828125 3.945312 8.828125 8.828125 0 4.878906-3.957032 8.828125-8.828125 8.828125zm0 0"/><path d="m220.691406 114.757812c-2.261718 0-4.519531-.863281-6.242187-2.585937l-26.484375-26.484375c-3.449219-3.449219-3.449219-9.027344 0-12.480469 3.453125-3.453125 9.03125-3.453125 12.484375 0l26.480469 26.484375c3.453124 3.449219 3.453124 9.027344 0 12.480469-1.71875 1.722656-3.980469 2.585937-6.238282 2.585937zm0 0"/><path d="m194.207031 88.277344c-2.261719 0-4.519531-.867188-6.242187-2.589844-3.449219-3.449219-3.449219-9.027344 0-12.480469l26.484375-26.484375c3.449219-3.449218 9.03125-3.449218 12.480469 0 3.453124 3.453125 3.453124 9.03125 0 12.484375l-26.480469 26.480469c-1.722657 1.722656-3.984375 2.589844-6.242188 2.589844zm0 0"/><path d="m317.792969 450.207031c-2.257813 0-4.519531-.867187-6.242188-2.585937l-26.480469-26.484375c-3.453124-3.449219-3.453124-9.03125 0-12.480469 3.449219-3.453125 9.03125-3.453125 12.480469 0l26.484375 26.480469c3.449219 3.453125 3.449219 9.03125 0 12.484375-1.722656 1.71875-3.980468 2.585937-6.242187 2.585937zm0 0"/><path d="m291.308594 476.691406c-2.257813 0-4.519532-.867187-6.238282-2.589844-3.453124-3.449218-3.453124-9.027343 0-12.480468l26.480469-26.484375c3.453125-3.449219 9.03125-3.449219 12.484375 0 3.449219 3.453125 3.449219 9.03125 0 12.484375l-26.484375 26.480468c-1.722656 1.722657-3.980469 2.589844-6.242187 2.589844zm0 0"/><path d="m317.792969 450.207031h-123.585938c-4.871093 0-8.828125-3.945312-8.828125-8.828125 0-4.882812 3.957032-8.828125 8.828125-8.828125h123.585938c4.871093 0 8.828125 3.945313 8.828125 8.828125 0 4.882813-3.957032 8.828125-8.828125 8.828125zm0 0"/><path d="m220.691406 476.691406c-2.261718 0-4.519531-.867187-6.242187-2.589844l-26.484375-26.480468c-3.449219-3.453125-3.449219-9.03125 0-12.484375 3.453125-3.449219 9.03125-3.449219 12.484375 0l26.480469 26.484375c3.453124 3.453125 3.453124 9.03125 0 12.480468-1.71875 1.722657-3.980469 2.589844-6.238282 2.589844zm0 0"/><path d="m194.207031 450.207031c-2.261719 0-4.519531-.867187-6.242187-2.585937-3.449219-3.453125-3.449219-9.03125 0-12.484375l26.484375-26.480469c3.449219-3.453125 9.03125-3.453125 12.480469 0 3.453124 3.449219 3.453124 9.03125 0 12.480469l-26.480469 26.484375c-1.722657 1.71875-3.984375 2.585937-6.242188 2.585937zm0 0"/></g><path d="m48.550781 233.929688c-2.257812 0-4.519531-.863282-6.238281-2.585938-3.453125-3.449219-3.453125-9.03125 0-12.480469l26.480469-26.484375c3.453125-3.449218 9.03125-3.449218 12.484375 0 3.449218 3.453125 3.449218 9.03125 0 12.484375l-26.484375 26.480469c-1.722657 1.722656-3.980469 2.585938-6.242188 2.585938zm0 0" fill="#25ae88"/><path d="m101.515625 233.929688c-2.257813 0-4.519531-.863282-6.238281-2.585938l-26.484375-26.480469c-3.453125-3.453125-3.453125-9.03125 0-12.484375 3.453125-3.449218 9.03125-3.449218 12.484375 0l26.480468 26.484375c3.453126 3.449219 3.453126 9.03125 0 12.480469-1.722656 1.722656-3.980468 2.585938-6.242187 2.585938zm0 0" fill="#25ae88"/><path d="m75.035156 331.035156c-4.875 0-8.828125-3.945312-8.828125-8.828125v-123.585937c0-4.882813 3.953125-8.828125 8.828125-8.828125 4.871094 0 8.828125 3.945312 8.828125 8.828125v123.585937c0 4.882813-3.957031 8.828125-8.828125 8.828125zm0 0" fill="#25ae88"/><path d="m75.035156 331.035156c-2.261718 0-4.519531-.867187-6.242187-2.585937-3.453125-3.453125-3.453125-9.03125 0-12.484375l26.484375-26.480469c3.449218-3.453125 9.03125-3.453125 12.480468 0 3.453126 3.449219 3.453126 9.027344 0 12.480469l-26.480468 26.484375c-1.722656 1.71875-3.984375 2.585937-6.242188 2.585937zm0 0" fill="#25ae88"/><path d="m75.035156 331.035156c-2.261718 0-4.519531-.867187-6.242187-2.585937l-26.480469-26.484375c-3.453125-3.453125-3.453125-9.03125 0-12.480469 3.449219-3.453125 9.027344-3.453125 12.480469 0l26.484375 26.480469c3.449218 3.453125 3.449218 9.03125 0 12.484375-1.722656 1.71875-3.984375 2.585937-6.242188 2.585937zm0 0" fill="#25ae88"/><path d="m410.484375 233.929688c-2.261719 0-4.519531-.863282-6.242187-2.585938-3.453126-3.449219-3.453126-9.03125 0-12.480469l26.480468-26.484375c3.453125-3.449218 9.03125-3.449218 12.484375 0 3.453125 3.453125 3.453125 9.03125 0 12.484375l-26.484375 26.480469c-1.71875 1.722656-3.980468 2.585938-6.238281 2.585938zm0 0" fill="#25ae88"/><path d="m463.449219 233.929688c-2.261719 0-4.519531-.863282-6.242188-2.585938l-26.484375-26.480469c-3.449218-3.453125-3.449218-9.03125 0-12.484375 3.453125-3.449218 9.03125-3.449218 12.484375 0l26.480469 26.484375c3.453125 3.449219 3.453125 9.03125 0 12.480469-1.71875 1.722656-3.980469 2.585938-6.238281 2.585938zm0 0" fill="#25ae88"/><path d="m436.964844 331.035156c-4.871094 0-8.828125-3.945312-8.828125-8.828125v-123.585937c0-4.882813 3.957031-8.828125 8.828125-8.828125 4.875 0 8.828125 3.945312 8.828125 8.828125v123.585937c0 4.882813-3.953125 8.828125-8.828125 8.828125zm0 0" fill="#25ae88"/><path d="m436.964844 331.035156c-2.257813 0-4.519532-.867187-6.242188-2.585937-3.449218-3.453125-3.449218-9.03125 0-12.484375l26.484375-26.480469c3.453125-3.453125 9.03125-3.453125 12.480469 0 3.453125 3.449219 3.453125 9.027344 0 12.480469l-26.480469 26.484375c-1.722656 1.71875-3.980469 2.585937-6.242187 2.585937zm0 0" fill="#25ae88"/><path d="m436.964844 331.035156c-2.257813 0-4.519532-.867187-6.242188-2.585937l-26.480468-26.484375c-3.453126-3.453125-3.453126-9.03125 0-12.480469 3.449218-3.453125 9.03125-3.453125 12.480468 0l26.484375 26.480469c3.453125 3.453125 3.453125 9.03125 0 12.484375-1.722656 1.71875-3.980469 2.585937-6.242187 2.585937zm0 0" fill="#25ae88"/><path d="m291.308594 264.828125h-70.617188s-30.070312-.222656-43.378906 15.589844l78.6875 72.683593 78.699219-72.683593c-15.246094-18.902344-43.390625-15.589844-43.390625-15.589844zm0 0" fill="#ea6248"/><path d="m512 79.449219c0 43.878906-35.570312 79.449219-79.449219 79.449219-43.878906 0-79.449219-35.570313-79.449219-79.449219 0-43.878907 35.570313-79.449219 79.449219-79.449219 43.878907 0 79.449219 35.570312 79.449219 79.449219zm0 0" fill="#e7eced"/><path d="m459.035156 61.792969c0 14.625-11.855468 26.484375-26.484375 26.484375-14.625 0-26.480469-11.859375-26.480469-26.484375s11.855469-26.484375 26.480469-26.484375c14.628907 0 26.484375 11.859375 26.484375 26.484375zm0 0" fill="#afb6bb"/><path d="m458.160156 123.585938h-51.21875c-10.230468 0-18.527344 7.960937-18.527344 17.789062v4.121094c12.625 8.457031 27.796876 13.402344 44.136719 13.402344 16.339844 0 31.515625-4.945313 44.140625-13.402344v-4.121094c0-9.828125-8.300781-17.789062-18.53125-17.789062zm0 0" fill="#afb6bb"/><path d="m158.898438 432.550781c0 43.878907-35.570313 79.449219-79.449219 79.449219-43.878907 0-79.449219-35.570312-79.449219-79.449219 0-43.878906 35.570312-79.449219 79.449219-79.449219 43.878906 0 79.449219 35.570313 79.449219 79.449219zm0 0" fill="#e7eced"/><path d="m105.929688 414.898438c0 14.625-11.855469 26.480468-26.480469 26.480468-14.628907 0-26.484375-11.855468-26.484375-26.480468 0-14.628907 11.855468-26.484376 26.484375-26.484376 14.625 0 26.480469 11.855469 26.480469 26.484376zm0 0" fill="#afb6bb"/><path d="m105.058594 476.691406h-51.21875c-10.230469 0-18.53125 7.960938-18.53125 17.785156v4.125c12.625 8.453126 27.800781 13.398438 44.140625 13.398438 16.339843 0 31.511719-4.945312 44.136719-13.398438v-4.125c0-9.824218-8.296876-17.785156-18.527344-17.785156zm0 0" fill="#afb6bb"/><path d="m512 432.550781c0 43.878907-35.570312 79.449219-79.449219 79.449219-43.878906 0-79.449219-35.570312-79.449219-79.449219 0-43.878906 35.570313-79.449219 79.449219-79.449219 43.878907 0 79.449219 35.570313 79.449219 79.449219zm0 0" fill="#e7eced"/><path d="m459.035156 414.898438c0 14.625-11.855468 26.480468-26.484375 26.480468-14.625 0-26.480469-11.855468-26.480469-26.480468 0-14.628907 11.855469-26.484376 26.480469-26.484376 14.628907 0 26.484375 11.855469 26.484375 26.484376zm0 0" fill="#afb6bb"/><path d="m458.160156 476.691406h-51.21875c-10.230468 0-18.527344 7.960938-18.527344 17.785156v4.125c12.625 8.453126 27.796876 13.398438 44.136719 13.398438 16.339844 0 31.515625-4.945312 44.140625-13.398438v-4.125c0-9.824218-8.300781-17.785156-18.53125-17.785156zm0 0" fill="#afb6bb"/><path d="m220.691406 264.828125 35.308594 26.480469 35.308594-26.480469c18.140625-10.769531 26.484375-30.339844 26.484375-52.964844 0-34.128906-27.664063-61.792969-61.792969-61.792969s-61.792969 27.664063-61.792969 61.792969c0 22.625 8.34375 42.195313 26.484375 52.964844zm0 0" fill="#fbce9d"/><path d="m317.527344 217.484375c.117187-1.863281.265625-3.714844.265625-5.621094 0-34.128906-27.664063-61.792969-61.792969-61.792969s-61.792969 27.664063-61.792969 61.792969c0 2.726563.132813 5.410157.378907 8.039063 17.742187-2.285156 45.675781-9.945313 70.242187-34.523438 0 0 17.574219 23.410156 52.699219 32.105469zm0 0" fill="#be6e41"/></svg>