<svg height="512pt" viewBox="0 0 512 512" width="512pt" xmlns="http://www.w3.org/2000/svg"><path d="m512 256c0 141.386719-114.613281 256-256 256s-256-114.613281-256-256 114.613281-256 256-256 256 114.613281 256 256zm0 0" fill="#7383bf"/><path d="m150.070312 176.550781h220.6875v132.414063h-220.6875zm0 0" fill="#556080"/><path d="m150.070312 185.378906c-4.875 0-8.828124-3.953125-8.828124-8.828125 0-24.335937-19.800782-44.136719-44.140626-44.136719-4.871093 0-8.824218-3.953124-8.824218-8.828124 0-4.871094 3.953125-8.828126 8.824218-8.828126 34.078126 0 61.796876 27.71875 61.796876 61.792969 0 4.875-3.957032 8.828125-8.828126 8.828125zm0 0" fill="#fff"/><path d="m326.621094 379.585938h-79.449219c-4.871094 0-8.828125-3.953126-8.828125-8.828126 0-4.871093 3.957031-8.828124 8.828125-8.828124h79.449219c4.871094 0 8.828125 3.957031 8.828125 8.828124 0 4.875-3.957031 8.828126-8.828125 8.828126zm0 0" fill="#fff"/><path d="m194.207031 379.585938h-17.65625c-19.472656 0-35.308593-15.835938-35.308593-35.308594v-35.3125c0-4.871094 3.953124-8.828125 8.828124-8.828125 4.871094 0 8.828126 3.957031 8.828126 8.828125v35.3125c0 9.734375 7.917968 17.652344 17.652343 17.652344h17.65625c4.871094 0 8.828125 3.957031 8.828125 8.828124 0 4.875-3.957031 8.828126-8.828125 8.828126zm0 0" fill="#fff"/><path d="m467.863281 256c-4.882812 0-8.828125-3.953125-8.828125-8.828125.015625-54.527344-23.984375-105.460937-67.585937-143.402344-3.679688-3.207031-4.058594-8.777343-.863281-12.457031 3.203124-3.691406 8.78125-4.0625 12.457031-.863281 47.507812 41.347656 73.664062 97.003906 73.648437 156.722656 0 4.875-3.957031 8.828125-8.828125 8.828125zm0 0" fill="#556080"/><path d="m335.246094 65.507812c-1.015625 0-2.050782-.175781-3.0625-.546874-21.523438-7.953126-44.183594-11.988282-67.355469-11.996094-4.875 0-8.828125-3.953125-8.828125-8.828125 0-4.871094 3.953125-8.828125 8.828125-8.828125 25.273437.011718 49.988281 4.414062 73.472656 13.09375 4.570313 1.683594 6.910157 6.769531 5.214844 11.34375-1.304687 3.554687-4.6875 5.761718-8.269531 5.761718zm0 0" fill="#556080"/><path d="m114.757812 423.722656c-2.003906 0-4.007812-.679687-5.65625-2.054687-48.296874-40.421875-73.808593-94.667969-73.792968-156.839844 0-4.875 3.957031-8.828125 8.828125-8.828125 4.875 0 8.828125 3.953125 8.828125 8.828125-.015625 56.789063 23.3125 106.335937 67.460937 143.296875 3.742188 3.125 4.230469 8.695312 1.105469 12.4375-1.75 2.085938-4.257812 3.160156-6.773438 3.160156zm0 0" fill="#556080"/><path d="m247.136719 476.691406c-23.761719 0-47.105469-3.914062-69.375-11.636718-4.609375-1.597657-7.046875-6.621094-5.445313-11.226563 1.597656-4.601563 6.617188-7.0625 11.226563-5.449219 20.402343 7.070313 41.796875 10.65625 63.59375 10.65625 4.519531-.140625 8.863281 3.9375 8.863281 8.828125 0 4.878907-4.378906 8.886719-8.863281 8.828125zm0 0" fill="#556080"/><g fill="#fff"><path d="m194.207031 273.65625h-44.136719c-4.875 0-8.828124-3.957031-8.828124-8.828125v-44.136719c0-4.875 3.953124-8.828125 8.828124-8.828125h44.136719c4.871094 0 8.828125 3.953125 8.828125 8.828125v44.136719c0 4.871094-3.957031 8.828125-8.828125 8.828125zm-35.308593-17.65625h26.480468v-26.484375h-26.480468zm0 0"/><path d="m238.34375 273.65625h-44.136719c-4.871093 0-8.828125-3.957031-8.828125-8.828125v-44.136719c0-4.875 3.957032-8.828125 8.828125-8.828125h44.136719c4.875 0 8.828125 3.953125 8.828125 8.828125v44.136719c0 4.871094-3.953125 8.828125-8.828125 8.828125zm-35.308594-17.65625h26.480469v-26.484375h-26.480469zm0 0"/><path d="m282.484375 273.65625h-44.140625c-4.871094 0-8.828125-3.957031-8.828125-8.828125v-44.136719c0-4.875 3.957031-8.828125 8.828125-8.828125h44.140625c4.871094 0 8.824219 3.953125 8.824219 8.828125v44.136719c0 4.871094-3.953125 8.828125-8.824219 8.828125zm-35.3125-17.65625h26.484375v-26.484375h-26.484375zm0 0"/><path d="m326.621094 273.65625h-44.136719c-4.875 0-8.828125-3.957031-8.828125-8.828125v-44.136719c0-4.875 3.953125-8.828125 8.828125-8.828125h44.136719c4.871094 0 8.828125 3.953125 8.828125 8.828125v44.136719c0 4.871094-3.957031 8.828125-8.828125 8.828125zm-35.3125-17.65625h26.484375v-26.484375h-26.484375zm0 0"/><path d="m370.757812 273.65625h-44.136718c-4.875 0-8.828125-3.957031-8.828125-8.828125v-44.136719c0-4.875 3.953125-8.828125 8.828125-8.828125h44.136718c4.875 0 8.828126 3.953125 8.828126 8.828125v44.136719c0 4.871094-3.953126 8.828125-8.828126 8.828125zm-35.308593-17.65625h26.480469v-26.484375h-26.480469zm0 0"/><path d="m194.207031 317.792969h-44.136719c-4.875 0-8.828124-3.953125-8.828124-8.828125v-44.136719c0-4.875 3.953124-8.828125 8.828124-8.828125h44.136719c4.871094 0 8.828125 3.953125 8.828125 8.828125v44.136719c0 4.875-3.957031 8.828125-8.828125 8.828125zm-35.308593-17.65625h26.480468v-26.480469h-26.480468zm0 0"/><path d="m238.34375 317.792969h-44.136719c-4.871093 0-8.828125-3.953125-8.828125-8.828125v-44.136719c0-4.875 3.957032-8.828125 8.828125-8.828125h44.136719c4.875 0 8.828125 3.953125 8.828125 8.828125v44.136719c0 4.875-3.953125 8.828125-8.828125 8.828125zm-35.308594-17.65625h26.480469v-26.480469h-26.480469zm0 0"/><path d="m282.484375 317.792969h-44.140625c-4.871094 0-8.828125-3.953125-8.828125-8.828125v-44.136719c0-4.875 3.957031-8.828125 8.828125-8.828125h44.140625c4.871094 0 8.824219 3.953125 8.824219 8.828125v44.136719c0 4.875-3.953125 8.828125-8.824219 8.828125zm-35.3125-17.65625h26.484375v-26.480469h-26.484375zm0 0"/><path d="m326.621094 317.792969h-44.136719c-4.875 0-8.828125-3.953125-8.828125-8.828125v-44.136719c0-4.875 3.953125-8.828125 8.828125-8.828125h44.136719c4.871094 0 8.828125 3.953125 8.828125 8.828125v44.136719c0 4.875-3.957031 8.828125-8.828125 8.828125zm-35.3125-17.65625h26.484375v-26.480469h-26.484375zm0 0"/><path d="m370.757812 317.792969h-44.136718c-4.875 0-8.828125-3.953125-8.828125-8.828125v-44.136719c0-4.875 3.953125-8.828125 8.828125-8.828125h44.136718c4.875 0 8.828126 3.953125 8.828126 8.828125v44.136719c0 4.875-3.953126 8.828125-8.828126 8.828125zm-35.308593-17.65625h26.480469v-26.480469h-26.480469zm0 0"/></g><path d="m185.378906 141.242188h70.621094v35.308593h-70.621094zm0 0" fill="#dd352e"/><path d="m229.515625 114.757812v26.484376h26.484375v35.308593h44.136719v-61.792969zm0 0" fill="#ebba16"/><path d="m300.136719 141.242188h52.964843v35.308593h-52.964843zm0 0" fill="#366db6"/><path d="m220.691406 406.070312c-19.476562 0-35.3125-15.839843-35.3125-35.3125 0-19.472656 15.835938-35.308593 35.3125-35.308593 19.472656 0 35.308594 15.835937 35.308594 35.308593 0 19.472657-15.835938 35.3125-35.308594 35.3125zm0 0" fill="#28384c"/><path d="m353.101562 406.070312c-19.472656 0-35.308593-15.839843-35.308593-35.3125 0-19.472656 15.835937-35.308593 35.308593-35.308593 19.476563 0 35.3125 15.835937 35.3125 35.308593 0 19.472657-15.835937 35.3125-35.3125 35.3125zm0 0" fill="#28384c"/><path d="m194.207031 229.515625h-44.136719c-4.875 0-8.828124-3.953125-8.828124-8.824219v-44.140625c0-4.871093 3.953124-8.828125 8.828124-8.828125h44.136719c4.871094 0 8.828125 3.957032 8.828125 8.828125v44.140625c0 4.871094-3.957031 8.824219-8.828125 8.824219zm-35.308593-17.652344h26.480468v-26.484375h-26.480468zm0 0" fill="#fff"/><path d="m238.34375 229.515625h-44.136719c-4.871093 0-8.828125-3.953125-8.828125-8.824219v-44.140625c0-4.871093 3.957032-8.828125 8.828125-8.828125h44.136719c4.875 0 8.828125 3.957032 8.828125 8.828125v44.140625c0 4.871094-3.953125 8.824219-8.828125 8.824219zm-35.308594-17.652344h26.480469v-26.484375h-26.480469zm0 0" fill="#fff"/><path d="m282.484375 229.515625h-44.140625c-4.871094 0-8.828125-3.953125-8.828125-8.824219v-44.140625c0-4.871093 3.957031-8.828125 8.828125-8.828125h44.140625c4.871094 0 8.824219 3.957032 8.824219 8.828125v44.140625c0 4.871094-3.953125 8.824219-8.824219 8.824219zm-35.3125-17.652344h26.484375v-26.484375h-26.484375zm0 0" fill="#fff"/><path d="m326.621094 229.515625h-44.136719c-4.875 0-8.828125-3.953125-8.828125-8.824219v-44.140625c0-4.871093 3.953125-8.828125 8.828125-8.828125h44.136719c4.871094 0 8.828125 3.957032 8.828125 8.828125v44.140625c0 4.871094-3.957031 8.824219-8.828125 8.824219zm-35.3125-17.652344h26.484375v-26.484375h-26.484375zm0 0" fill="#fff"/><path d="m370.757812 229.515625h-44.136718c-4.875 0-8.828125-3.953125-8.828125-8.824219v-44.140625c0-4.871093 3.953125-8.828125 8.828125-8.828125h44.136718c4.875 0 8.828126 3.957032 8.828126 8.828125v44.140625c0 4.871094-3.953126 8.824219-8.828126 8.824219zm-35.308593-17.652344h26.480469v-26.484375h-26.480469zm0 0" fill="#fff"/></svg>