<svg height="512pt" viewBox="0 0 512 512" width="512pt" xmlns="http://www.w3.org/2000/svg"><path d="m317.792969 264.828125h-44.136719c-4.875 0-8.828125-3.957031-8.828125-8.828125s3.953125-8.828125 8.828125-8.828125h44.136719c4.871093 0 8.828125 3.957031 8.828125 8.828125s-3.957032 8.828125-8.828125 8.828125zm0 0" fill="#7383bf"/><path d="m273.65625 432.550781h-35.3125c-4.871094 0-8.828125-3.953125-8.828125-8.828125 0-4.871094 3.957031-8.824218 8.828125-8.824218h26.484375v-317.796876h-26.484375c-4.871094 0-8.828125-3.953124-8.828125-8.824218 0-4.875 3.957031-8.828125 8.828125-8.828125h35.3125c4.871094 0 8.828125 3.953125 8.828125 8.828125v335.445312c0 4.875-3.957031 8.828125-8.828125 8.828125zm0 0" fill="#7383bf"/><path d="m352.300781 312.382812c36.6875 25.8125 88.511719 31.777344 124.519531 3.335938 5.15625-4.070312 11.082032-4.015625 15.890626-1.792969 12.058593-16.1875 19.289062-36.183593 19.289062-57.925781 0-53.628906-43.476562-97.101562-97.101562-97.101562-53.628907 0-97.105469 43.472656-97.105469 97.101562 0 21.46875 7.054687 41.25 18.855469 57.328125 3.945312-3.769531 9.71875-5.121094 15.652343-.945313zm0 0" fill="#366db6"/><path d="m441.378906 220.691406c0 14.625-11.855468 26.480469-26.480468 26.480469-14.628907 0-26.484376-11.855469-26.484376-26.480469 0-14.628906 11.855469-26.484375 26.484376-26.484375 14.625 0 26.480468 11.855469 26.480468 26.484375zm0 0" fill="#e7eced"/><path d="m414.898438 282.484375c-34.78125 0-64.777344 12.101563-79.148438 29.640625 17.589844 24.769531 46.449219 40.976562 79.148438 40.976562 32.695312 0 61.554687-16.207031 79.144531-40.976562-14.371094-17.539062-44.367188-29.640625-79.144531-29.640625zm0 0" fill="#e7eced"/><path d="m17.65625 52.964844h176.550781v61.792968h-176.550781zm0 0" fill="#28384c"/><path d="m0 105.929688h211.863281v70.621093h-211.863281zm0 0" fill="#475a70"/><path d="m176.550781 150.070312h-70.621093c-4.871094 0-8.828126-3.957031-8.828126-8.828124 0-4.875 3.957032-8.828126 8.828126-8.828126h70.621093c4.875 0 8.828125 3.953126 8.828125 8.828126 0 4.871093-3.953125 8.828124-8.828125 8.828124zm0 0" fill="#57abc1"/><path d="m70.621094 150.070312h-35.3125c-4.871094 0-8.824219-3.957031-8.824219-8.828124 0-4.875 3.953125-8.828126 8.824219-8.828126h35.3125c4.871094 0 8.828125 3.953126 8.828125 8.828126 0 4.871093-3.957031 8.828124-8.828125 8.828124zm0 0" fill="#dc691d"/><path d="m211.863281 70.621094h-211.863281v-70.621094h211.863281zm0 0" fill="#475a70"/><path d="m150.070312 26.484375h17.652344c4.875 0 8.828125 3.953125 8.828125 8.824219 0 4.875-3.953125 8.828125-8.828125 8.828125h-17.652344c-4.875 0-8.828124-3.953125-8.828124-8.828125 0-4.871094 3.953124-8.824219 8.828124-8.824219zm0 0" fill="#dd352e"/><path d="m97.101562 26.484375h17.65625c4.875 0 8.828126 3.953125 8.828126 8.824219 0 4.875-3.953126 8.828125-8.828126 8.828125h-17.65625c-4.871093 0-8.824218-3.953125-8.824218-8.828125 0-4.871094 3.953125-8.824219 8.824218-8.824219zm0 0" fill="#ebba16"/><path d="m44.136719 26.484375h17.65625c4.871093 0 8.828125 3.953125 8.828125 8.824219 0 4.875-3.957032 8.828125-8.828125 8.828125h-17.65625c-4.871094 0-8.828125-3.953125-8.828125-8.828125 0-4.871094 3.957031-8.824219 8.828125-8.824219zm0 0" fill="#cb465f"/><path d="m194.207031 459.035156h-176.550781v-61.792968h176.550781zm0 0" fill="#28384c"/><path d="m211.863281 406.070312h-211.863281v-70.621093h211.863281zm0 0" fill="#475a70"/><path d="m35.308594 361.929688h70.621094c4.875 0 8.828124 3.957031 8.828124 8.828124 0 4.875-3.953124 8.828126-8.828124 8.828126h-70.621094c-4.871094 0-8.824219-3.953126-8.824219-8.828126 0-4.871093 3.953125-8.828124 8.824219-8.828124zm0 0" fill="#57abc1"/><path d="m141.242188 361.929688h35.308593c4.875 0 8.828125 3.957031 8.828125 8.828124 0 4.875-3.953125 8.828126-8.828125 8.828126h-35.308593c-4.875 0-8.828126-3.953126-8.828126-8.828126 0-4.871093 3.953126-8.828124 8.828126-8.828124zm0 0" fill="#dc691d"/><path d="m0 441.378906h211.863281v70.621094h-211.863281zm0 0" fill="#475a70"/><path d="m61.792969 485.515625h-17.65625c-4.871094 0-8.828125-3.953125-8.828125-8.824219 0-4.875 3.957031-8.828125 8.828125-8.828125h17.65625c4.871093 0 8.828125 3.953125 8.828125 8.828125 0 4.871094-3.957032 8.824219-8.828125 8.824219zm0 0" fill="#dd352e"/><path d="m114.757812 485.515625h-17.65625c-4.871093 0-8.824218-3.953125-8.824218-8.824219 0-4.875 3.953125-8.828125 8.824218-8.828125h17.65625c4.875 0 8.828126 3.953125 8.828126 8.828125 0 4.871094-3.953126 8.824219-8.828126 8.824219zm0 0" fill="#ebba16"/><path d="m167.722656 485.515625h-17.652344c-4.875 0-8.828124-3.953125-8.828124-8.824219 0-4.875 3.953124-8.828125 8.828124-8.828125h17.652344c4.875 0 8.828125 3.953125 8.828125 8.828125 0 4.871094-3.953125 8.824219-8.828125 8.824219zm0 0" fill="#cb465f"/></svg>