<svg height="512pt" viewBox="0 0 512 512" width="512pt" xmlns="http://www.w3.org/2000/svg"><g fill="#7383bf"><path d="m154.484375 180.964844c-2.261719 0-4.519531-.863282-6.242187-2.585938l-92.691407-92.691406c-3.449219-3.449219-3.449219-9.027344 0-12.480469 3.445313-3.453125 9.039063-3.453125 12.484375 0l92.6875 92.691407c3.453125 3.449218 3.453125 9.027343 0 12.480468-1.71875 1.722656-3.980468 2.585938-6.238281 2.585938zm0 0"/><path d="m357.515625 163.308594c-2.257813 0-4.519531-.863282-6.238281-2.585938-3.453125-3.449218-3.453125-9.03125 0-12.480468l101.515625-101.519532c3.441406-3.449218 9.039062-3.449218 12.484375 0 3.449218 3.453125 3.449218 9.03125 0 12.484375l-101.519532 101.515625c-1.722656 1.722656-3.980468 2.585938-6.242187 2.585938zm0 0"/><path d="m101.515625 410.484375c-2.257813 0-4.519531-.867187-6.238281-2.589844-3.453125-3.449219-3.453125-9.027343 0-12.480469l66.207031-66.207031c3.441406-3.453125 9.039063-3.453125 12.480469 0 3.453125 3.453125 3.453125 9.03125 0 12.480469l-66.207032 66.207031c-1.722656 1.722657-3.980468 2.589844-6.242187 2.589844zm0 0"/><path d="m454.46875 454.769531c-2.257812 0-4.519531-.863281-6.238281-2.585937l-105.933594-105.929688c-3.449219-3.453125-3.449219-9.03125 0-12.484375 3.445313-3.449219 9.042969-3.449219 12.484375 0l105.929688 105.933594c3.453124 3.449219 3.453124 9.03125 0 12.480469-1.71875 1.722656-3.980469 2.585937-6.242188 2.585937zm0 0"/></g><path d="m423.722656 247.171875c0 87.757813-71.140625 158.898437-158.894531 158.898437-87.757813 0-158.898437-71.140624-158.898437-158.898437 0-87.753906 71.140624-158.894531 158.898437-158.894531 87.753906 0 158.894531 71.140625 158.894531 158.894531zm0 0" fill="#e7eced"/><path d="m247.382812 378.359375c-.414062 0-.828124-.027344-1.242187-.089844-12.519531-1.765625-24.691406-5.320312-36.183594-10.554687-4.433593-2.023438-6.394531-7.257813-4.371093-11.699219 2.019531-4.4375 7.265624-6.390625 11.695312-4.378906 9.949219 4.539062 20.488281 7.609375 31.328125 9.148437 4.832031.679688 8.183594 5.144532 7.503906 9.972656-.617187 4.414063-4.394531 7.601563-8.730469 7.601563zm35.136719-.035156c-4.328125 0-8.097656-3.167969-8.730469-7.574219-.691406-4.828125 2.65625-9.304688 7.484376-9.992188 10.839843-1.554687 21.371093-4.652343 31.300781-9.207031 4.433593-2.023437 9.667969-.082031 11.707031 4.351563 2.039062 4.429687.089844 9.664062-4.34375 11.703125-11.476562 5.261719-23.628906 8.839843-36.148438 10.628906-.433593.0625-.847656.089844-1.269531.089844zm-98.492187-28.804688c-2.046875 0-4.101563-.707031-5.773438-2.152343-9.550781-8.265626-17.867187-17.824219-24.714844-28.417969-2.648437-4.09375-1.476562-9.558594 2.621094-12.207031 4.097656-2.640626 9.558594-1.476563 12.207032 2.621093 5.941406 9.1875 13.15625 17.476563 21.445312 24.644531 3.6875 3.1875 4.085938 8.765626.898438 12.457032-1.746094 2.023437-4.210938 3.054687-6.683594 3.054687zm161.785156-.160156c-2.472656 0-4.925781-1.03125-6.675781-3.035156-3.195313-3.679688-2.804688-9.261719.875-12.457031 8.28125-7.183594 15.476562-15.492188 21.390625-24.691407 2.636718-4.09375 8.09375-5.304687 12.199218-2.648437 4.105469 2.640625 5.289063 8.097656 2.648438 12.203125-6.824219 10.601562-15.121094 20.179687-24.65625 28.46875-1.667969 1.445312-3.726562 2.160156-5.78125 2.160156zm-199.539062-58.3125c-3.8125 0-7.328126-2.492187-8.464844-6.332031-3.558594-12.058594-5.378906-24.601563-5.402344-37.269532-.011719-4.871093 3.9375-8.835937 8.808594-8.84375h.019531c4.871094 0 8.816406 3.9375 8.824219 8.808594.019531 10.992188 1.597656 21.867188 4.679687 32.308594 1.378907 4.679688-1.289062 9.585938-5.96875 10.964844-.828125.246094-1.667969.363281-2.496093.363281zm237.179687-.25c-.820313 0-1.660156-.113281-2.480469-.359375-4.679687-1.371094-7.363281-6.269531-5.996094-10.957031 3.054688-10.441407 4.609376-21.308594 4.609376-32.308594 0-4.871094 3.953124-9.074219 8.828124-9.074219 4.871094 0 8.828126 3.699219 8.828126 8.582032v.492187c0 12.675781-1.792969 25.210937-5.324219 37.28125-1.128907 3.847656-4.652344 6.34375-8.464844 6.34375zm-237.3125-69.355469c-.820313 0-1.640625-.117187-2.472656-.355468-4.675781-1.359376-7.371094-6.257813-6.011719-10.9375 3.523438-12.128907 8.765625-23.664063 15.589844-34.3125 2.632812-4.09375 8.09375-5.285157 12.199218-2.664063 4.105469 2.628906 5.296876 8.09375 2.667969 12.191406-5.90625 9.214844-10.453125 19.214844-13.507812 29.703125-1.113281 3.867188-4.632813 6.375-8.464844 6.375zm237.160156-.726562c-3.804687 0-7.316406-2.480469-8.453125-6.308594-3.117187-10.472656-7.726562-20.4375-13.683594-29.628906-2.65625-4.085938-1.492187-9.558594 2.59375-12.207032 4.097657-2.640624 9.5625-1.484374 12.210938 2.59375 6.882812 10.613282 12.199219 22.113282 15.800781 34.207032 1.382813 4.671875-1.273437 9.589844-5.941406 10.984375-.839844.246093-1.695313.359375-2.527344.359375zm-199.644531-57.90625c-2.460938 0-4.914062-1.027344-6.65625-3.027344-3.203125-3.683594-2.824219-9.253906.847656-12.457031 9.542969-8.316407 20.179688-15.203125 31.621094-20.472657 4.433594-2.039062 9.675781-.097656 11.714844 4.328126 2.039062 4.421874.105468 9.671874-4.324219 11.710937-9.914063 4.574219-19.140625 10.542969-27.402344 17.753906-1.667969 1.449219-3.742187 2.164063-5.800781 2.164063zm161.777344-.496094c-2.039063 0-4.089844-.707031-5.757813-2.136719-8.316406-7.160156-17.566406-13.074219-27.515625-17.582031-4.4375-2.015625-6.40625-7.242188-4.394531-11.679688 2.011719-4.441406 7.238281-6.425781 11.6875-4.398437 11.476563 5.199219 22.15625 12.023437 31.742187 20.277344 3.691407 3.179687 4.113282 8.757812.929688 12.449219-1.75 2.039062-4.210938 3.070312-6.691406 3.070312zm-98.570313-28.601562c-4.316406 0-8.085937-3.160157-8.722656-7.554688-.703125-4.820312 2.640625-9.304688 7.460937-10.011719 12.324219-1.792969 25.253907-1.855469 37.648438-.113281 4.828125.667969 8.191406 5.136719 7.523438 9.957031-.671876 4.828125-5.148438 8.207031-9.96875 7.519531-10.75-1.5-21.980469-1.457031-32.660157.105469-.425781.070313-.855469.097657-1.28125.097657zm0 0" fill="#afb6bb"/><path d="m282.484375 308.964844h-52.96875c-4.871094 0-8.824219-3.953125-8.824219-8.828125 0-4.871094 3.953125-8.828125 8.824219-8.828125h52.96875c9.734375 0 17.652344-7.917969 17.652344-17.652344 0-9.738281-7.917969-17.65625-17.652344-17.65625h-35.3125c-19.472656 0-35.308594-15.835938-35.308594-35.308594 0-19.476562 15.835938-35.3125 35.308594-35.3125h52.964844c4.875 0 8.828125 3.957032 8.828125 8.828125 0 4.871094-3.953125 8.828125-8.828125 8.828125h-52.964844c-9.734375 0-17.65625 7.917969-17.65625 17.65625 0 9.734375 7.921875 17.652344 17.65625 17.652344h35.3125c19.472656 0 35.308594 15.835938 35.308594 35.3125 0 19.472656-15.835938 35.308594-35.308594 35.308594zm0 0" fill="#23a24d"/><path d="m264.828125 326.621094c-4.875 0-8.828125-3.957032-8.828125-8.828125v-141.242188c0-4.871093 3.953125-8.828125 8.828125-8.828125 4.871094 0 8.828125 3.957032 8.828125 8.828125v141.242188c0 4.871093-3.957031 8.828125-8.828125 8.828125zm0 0" fill="#23a24d"/><path d="m88.277344 70.621094c0 24.375-19.761719 44.136718-44.140625 44.136718-24.375 0-44.136719-19.761718-44.136719-44.136718 0-24.378906 19.761719-44.136719 44.136719-44.136719 24.378906 0 44.140625 19.757813 44.140625 44.136719zm0 0" fill="#ebba16"/><path d="m52.964844 79.449219h-17.65625c-4.871094 0-8.824219-3.957031-8.824219-8.828125 0-4.875 3.953125-8.828125 8.824219-8.828125h17.65625c4.875 0 8.828125 3.953125 8.828125 8.828125 0 4.871094-3.953125 8.828125-8.828125 8.828125zm0 0" fill="#fff"/><path d="m512 44.136719c0 24.378906-19.761719 44.140625-44.136719 44.140625-24.378906 0-44.140625-19.761719-44.140625-44.140625 0-24.375 19.761719-44.136719 44.140625-44.136719 24.375 0 44.136719 19.761719 44.136719 44.136719zm0 0" fill="#366db6"/><path d="m476.691406 52.964844h-17.65625c-4.875 0-8.828125-3.953125-8.828125-8.828125 0-4.871094 3.953125-8.828125 8.828125-8.828125h17.65625c4.871094 0 8.824219 3.957031 8.824219 8.828125 0 4.875-3.953125 8.828125-8.824219 8.828125zm0 0" fill="#fff"/><path d="m512 467.863281c0 24.375-19.761719 44.136719-44.136719 44.136719-24.378906 0-44.140625-19.761719-44.140625-44.136719 0-24.378906 19.761719-44.140625 44.140625-44.140625 24.375 0 44.136719 19.761719 44.136719 44.140625zm0 0" fill="#57abc1"/><path d="m476.691406 476.691406h-17.65625c-4.875 0-8.828125-3.957031-8.828125-8.828125 0-4.875 3.953125-8.828125 8.828125-8.828125h17.65625c4.871094 0 8.824219 3.953125 8.824219 8.828125 0 4.871094-3.953125 8.828125-8.824219 8.828125zm0 0" fill="#fff"/><path d="m132.414062 423.722656c0 24.378906-19.761718 44.140625-44.136718 44.140625-24.378906 0-44.140625-19.761719-44.140625-44.140625 0-24.375 19.761719-44.136718 44.140625-44.136718 24.375 0 44.136718 19.761718 44.136718 44.136718zm0 0" fill="#dd352e"/><path d="m97.101562 432.550781h-17.652343c-4.875 0-8.828125-3.953125-8.828125-8.828125 0-4.871094 3.953125-8.824218 8.828125-8.824218h17.652343c4.875 0 8.828126 3.953124 8.828126 8.824218 0 4.875-3.953126 8.828125-8.828126 8.828125zm0 0" fill="#fff"/></svg>