<svg height="512pt" viewBox="0 -4 512 512" width="512pt" xmlns="http://www.w3.org/2000/svg"><path d="m282.484375 44.136719h211.859375v17.65625h-211.859375zm0 0" fill="#dd352e"/><path d="m478.789062 8.140625c-6.082031-4.601563-14.203124-8.140625-24.796874-8.140625-24.539063 0-36.871094 11.609375-42.132813 18.707031 6.886719 2.398438-5.789063 8.886719-5.789063 16.601563 0 8.890625-9.113281 16.421875-17.65625 17.65625h105.929688v-12.5625c0-12.402344-5.367188-24.558594-15.554688-32.261719zm0 0" fill="#dd352e"/><path d="m388.414062 35.308594c0-7.714844-30.332031-14.203125-23.445312-16.601563-5.253906-7.097656-17.59375-18.707031-42.125-18.707031-10.59375 0-18.714844 3.539062-24.796875 8.140625-10.195313 7.703125-15.5625 19.859375-15.5625 32.261719v12.5625h105.929687l-20.179687-.253906c-8.546875-1.238282 20.179687-8.511719 20.179687-17.402344zm0 0" fill="#dd352e"/><path d="m282.484375 79.449219h211.859375v132.414062h-211.859375zm0 0" fill="#366db6"/><path d="m264.828125 52.964844h247.171875v35.3125h-247.171875zm0 0" fill="#1f436d"/><path d="m406.070312 52.964844h-35.3125c-9.753906 0-17.65625-7.898438-17.65625-17.65625 0-9.753906 7.902344-17.652344 17.65625-17.652344h35.3125c9.753907 0 17.652344 7.898438 17.652344 17.652344 0 9.757812-7.898437 17.65625-17.652344 17.65625zm0 0" fill="#b02721"/><path d="m361.929688 88.277344h52.96875v123.585937h-52.96875zm0 0" fill="#ebba16"/><path d="m247.171875 379.585938c0 68.253906-55.332031 123.585937-123.585937 123.585937-68.253907 0-123.585938-55.332031-123.585938-123.585937 0-68.253907 55.332031-123.585938 123.585938-123.585938 68.253906 0 123.585937 55.332031 123.585937 123.585938zm0 0" fill="#23a24d"/><g fill="#ebba16"><path d="m70.621094 220.691406c-4.875 0-8.828125-3.957031-8.828125-8.828125v-26.484375c0-82.75 67.320312-150.070312 150.070312-150.070312 4.871094 0 8.828125 3.957031 8.828125 8.828125 0 4.875-3.957031 8.828125-8.828125 8.828125-73.015625 0-132.414062 59.402344-132.414062 132.414062v26.484375c0 4.871094-3.957031 8.828125-8.828125 8.828125zm0 0"/><path d="m70.628906 220.691406c-2.585937 0-5.15625-1.132812-6.894531-3.3125l-35.308594-44.136718c-3.046875-3.804688-2.429687-9.367188 1.375-12.402344 3.804688-3.054688 9.367188-2.429688 12.414063 1.375l35.308594 44.140625c3.046874 3.804687 2.429687 9.363281-1.375 12.402343-1.644532 1.296876-3.585938 1.933594-5.519532 1.933594zm0 0"/><path d="m70.613281 220.691406c-1.933593 0-3.886719-.636718-5.511719-1.933594-3.804687-3.046874-4.421874-8.597656-1.375-12.402343l35.308594-44.140625c3.046875-3.804688 8.597656-4.429688 12.414063-1.375 3.804687 3.042968 4.421875 8.597656 1.375 12.402344l-35.308594 44.136718c-1.75 2.179688-4.308594 3.3125-6.902344 3.3125zm0 0"/><path d="m300.136719 459.035156c-4.871094 0-8.828125-3.957031-8.828125-8.828125 0-4.871093 3.957031-8.828125 8.828125-8.828125 73.015625 0 132.414062-59.402344 132.414062-132.414062v-26.480469c0-4.875 3.957031-8.828125 8.828125-8.828125 4.875 0 8.828125 3.953125 8.828125 8.828125v26.480469c0 82.75-67.320312 150.070312-150.070312 150.070312zm0 0"/><path d="m476.699219 335.449219c-2.585938 0-5.15625-1.132813-6.894531-3.3125l-35.3125-44.136719c-3.042969-3.804688-2.425782-9.367188 1.378906-12.402344 3.804687-3.046875 9.367187-2.429687 12.410156 1.375l35.3125 44.140625c3.042969 3.804688 2.425781 9.363281-1.378906 12.402344-1.640625 1.296875-3.582032 1.933594-5.515625 1.933594zm0 0"/><path d="m406.058594 335.449219c-1.933594 0-3.882813-.636719-5.507813-1.933594-3.804687-3.046875-4.421875-8.597656-1.375-12.402344l35.308594-44.140625c3.046875-3.8125 8.597656-4.421875 12.414063-1.375 3.804687 3.046875 4.421874 8.597656 1.375 12.402344l-35.308594 44.136719c-1.75 2.179687-4.308594 3.3125-6.90625 3.3125zm0 0"/></g><path d="m141.242188 441.378906h-52.964844c-4.875 0-8.828125-3.953125-8.828125-8.828125 0-4.871093 3.953125-8.828125 8.828125-8.828125h52.964844c9.734374 0 17.65625-7.917968 17.65625-17.652344 0-9.738281-7.921876-17.65625-17.65625-17.65625h-35.3125c-19.472657 0-35.308594-15.835937-35.308594-35.3125 0-19.472656 15.835937-35.308593 35.308594-35.308593h52.96875c4.871093 0 8.824218 3.953125 8.824218 8.828125 0 4.871094-3.953125 8.828125-8.824218 8.828125h-52.96875c-9.734376 0-17.652344 7.917969-17.652344 17.652343 0 9.738282 7.917968 17.65625 17.652344 17.65625h35.3125c19.472656 0 35.308593 15.835938 35.308593 35.3125 0 19.472657-15.835937 35.308594-35.308593 35.308594zm0 0" fill="#fff"/><path d="m123.585938 459.035156c-4.871094 0-8.828126-3.957031-8.828126-8.828125v-141.242187c0-4.871094 3.957032-8.828125 8.828126-8.828125 4.875 0 8.828124 3.957031 8.828124 8.828125v141.242187c0 4.871094-3.953124 8.828125-8.828124 8.828125zm0 0" fill="#fff"/></svg>