<svg width="40" height="40" viewBox="0 0 75 75" fill="none" xmlns="http://www.w3.org/2000/svg">
<path fill-rule="evenodd" clip-rule="evenodd" d="M37.5 75C58.2107 75 75 58.2107 75 37.5C75 16.7893 58.2107 0 37.5 0C16.7893 0 0 16.7893 0 37.5C0 58.2107 16.7893 75 37.5 75ZM57.1104 24.1136C59.1851 23.8667 61.1597 23.3137 63 22.4983C61.6283 24.5541 59.8849 26.36 57.8697 27.7974L57.9041 29.1252C57.9041 42.6789 47.5904 58.3073 28.7221 58.3073C22.9294 58.3073 17.5398 56.6076 13 53.6925C13.803 53.7831 14.6185 53.8331 15.4464 53.8331C20.2517 53.8331 24.6759 52.199 28.1847 49.4495C23.698 49.3682 19.9111 46.4032 18.6052 42.3258C19.2332 42.4508 19.8737 42.5164 20.5361 42.5164C21.4734 42.5164 22.3794 42.3883 23.2387 42.1571C18.549 41.2135 15.0121 37.0674 15.0121 32.0996V31.9715C16.3962 32.7401 17.9772 33.2025 19.6581 33.2587C16.9086 31.4216 15.0964 28.2816 15.0964 24.7229C15.0964 22.8419 15.5995 21.0798 16.4837 19.5675C21.5421 25.7727 29.1 29.8563 37.6234 30.2844C37.4484 29.5345 37.3578 28.7502 37.3578 27.9473C37.3578 22.2858 41.9507 17.693 47.6152 17.693C50.5678 17.693 53.2299 18.9365 55.1013 20.933C57.4384 20.4706 59.6318 19.6175 61.6189 18.4428C60.8504 20.833 59.2288 22.8451 57.1104 24.1136Z" fill="white"/>
</svg>
