<svg height="512pt" viewBox="0 0 512 512" width="512pt" xmlns="http://www.w3.org/2000/svg"><path d="m229.515625 176.550781 26.484375-17.652343 26.484375 8.824218c1.613281-.113281 16.171875-26.515625 17.652344-26.480468-8.039063-11.292969-26.480469-35.3125-26.480469-61.792969h-35.3125c0 26.480469-18.441406 50.5-26.480469 61.792969 1.480469-.035157 16.039063 35.195312 17.652344 35.308593zm0 0" fill="#d8a979"/><g fill="#61b872"><path d="m450.207031 167.722656c-4.871093 0-8.828125-3.945312-8.828125-8.824218 0-29.210938 23.765625-52.96875 52.964844-52.96875 4.875 0 8.828125 3.949218 8.828125 8.828124 0 4.882813-3.953125 8.828126-8.828125 8.828126-19.472656 0-35.308594 15.835937-35.308594 35.3125 0 4.878906-3.957031 8.824218-8.828125 8.824218zm0 0"/><path d="m450.207031 167.722656c-4.871093 0-8.828125-3.945312-8.828125-8.824218 0-19.476563-15.835937-35.3125-35.308594-35.3125-4.875 0-8.828124-3.945313-8.828124-8.828126 0-4.878906 3.953124-8.828124 8.828124-8.828124 29.199219 0 52.964844 23.757812 52.964844 52.96875 0 4.878906-3.957031 8.824218-8.828125 8.824218zm0 0"/><path d="m450.207031 167.722656c-4.871093 0-8.828125-3.945312-8.828125-8.824218v-70.621094c0-4.882813 3.957032-8.828125 8.828125-8.828125 4.871094 0 8.828125 3.945312 8.828125 8.828125v70.621094c0 4.878906-3.957031 8.824218-8.828125 8.824218zm0 0"/></g><path d="m44.136719 238.34375c-4.871094 0-8.828125-3.945312-8.828125-8.828125v-52.964844c0-34.066406 27.71875-61.792969 61.792968-61.792969 4.875 0 8.828126 3.945313 8.828126 8.828126 0 4.882812-3.953126 8.828124-8.828126 8.828124-24.335937 0-44.136718 19.800782-44.136718 44.136719v52.964844c0 4.882813-3.953125 8.828125-8.828125 8.828125zm0 0" fill="#e7eced"/><path d="m17.65625 256h476.6875v256h-476.6875zm0 0" fill="#be6e41"/><path d="m423.722656 158.898438h52.96875v79.445312h-52.96875zm0 0" fill="#ebba16"/><path d="m282.484375 132.414062-26.484375 26.484376-26.484375-26.484376c-26.859375-1.871093-35.308594 17.671876-35.308594 44.136719v61.792969h123.585938v-61.792969c0-26.464843-8.449219-46.007812-35.308594-44.136719zm0 0" fill="#dd352e"/><path d="m344.277344 388.414062c0 48.753907-39.523438 88.277344-88.277344 88.277344s-88.277344-39.523437-88.277344-88.277344c0-48.753906 39.523438-88.277343 88.277344-88.277343s88.277344 39.523437 88.277344 88.277343zm0 0" fill="#fff"/><path d="m0 229.515625h512v35.3125h-512zm0 0" fill="#6c4127"/><path d="m307.351562 77.472656c-8.316406-10.367187-15.554687-21.054687-16.042968-42.164062 0 0 0-35.308594-35.308594-35.308594s-35.308594 35.308594-35.308594 35.308594c-.488281 21.109375-7.726562 31.796875-16.042968 42.164062-3.167969 3.945313-1.605469 10.769532 4.070312 10.804688h94.5625c5.675781-.035156 7.238281-6.859375 4.070312-10.804688zm0 0" fill="#fbce9d"/><path d="m282.484375 203.035156h-52.96875c-4.871094 0-8.824219-3.945312-8.824219-8.828125 0-4.882812 3.953125-8.828125 8.824219-8.828125h52.96875c4.871094 0 8.824219 3.945313 8.824219 8.828125 0 4.882813-3.953125 8.828125-8.824219 8.828125zm0 0" fill="#ebba16"/><path d="m256 0c-35.308594 0-35.308594 35.308594-35.308594 35.308594h70.617188s0-35.308594-35.308594-35.308594zm0 0" fill="#6c4127"/><path d="m256 353.101562c-4.871094 0-8.828125-3.945312-8.828125-8.824218v-8.828125c0-4.882813 3.957031-8.828125 8.828125-8.828125s8.828125 3.945312 8.828125 8.828125v8.828125c0 4.878906-3.957031 8.824218-8.828125 8.824218zm0 0" fill="#366db6"/><path d="m256 450.207031c-4.871094 0-8.828125-3.945312-8.828125-8.828125v-61.792968c0-4.882813 3.957031-8.828126 8.828125-8.828126s8.828125 3.945313 8.828125 8.828126v61.792968c0 4.882813-3.957031 8.828125-8.828125 8.828125zm0 0" fill="#366db6"/><path d="m97.101562 105.929688h52.96875v35.3125h-52.96875zm0 0" fill="#839594"/></svg>